<?xml version="1.0" encoding="utf-8"?>
<!-- Generator: Adobe Illustrator 26.3.1, SVG Export Plug-In . SVG Version: 6.00 Build 0)  -->
<svg version="1.1" id="Camada_1" xmlns="http://www.w3.org/2000/svg" xmlns:xlink="http://www.w3.org/1999/xlink" x="0px" y="0px"
	 viewBox="0 0 53 53" enable-background="new 0 0 53 53" xml:space="preserve">
<path fill="#0E3B96" d="M50.29,21H32V2.71C32,1.22,30.78,0,29.29,0h-5.57C22.22,0,21,1.22,21,2.71V21H2.71C1.22,21,0,22.22,0,23.71
	v5.57C0,30.78,1.22,32,2.71,32H21v18.29c0,1.5,1.22,2.71,2.71,2.71h5.57c1.5,0,2.71-1.22,2.71-2.71V32h18.29
	c1.5,0,2.71-1.22,2.71-2.71v-5.57C53,22.22,51.78,21,50.29,21z"/>
</svg>
