<?xml version="1.0" encoding="utf-8"?>
<!-- Generator: Adobe Illustrator 26.2.1, SVG Export Plug-In . SVG Version: 6.00 Build 0)  -->
<svg version="1.1" id="Camada_1" xmlns="http://www.w3.org/2000/svg" xmlns:xlink="http://www.w3.org/1999/xlink" x="0px" y="0px"
	 viewBox="0 0 428 863.07" enable-background="new 0 0 428 863.07" xml:space="preserve">
<path opacity="0.2" fill="#0E3B96" fill-opacity="0.2" enable-background="new    " d="M131.31,46.29c-0.04,2.65-2.2,3.9-3.74,5.2
	c-0.43,0.36-0.99,0.34-1.49,0.49c-3.21,7.31-8.48,7.53-13.4,8.84c-1.11,0.3-2.28,0.07-3.43,0.12c-1.32,0.06-2.46,0.63-1.68,3.07
	c1.07,3.35-0.21,4.81-1.78,6.5c-4.75,5.07-10.04,8.19-15.69,9.97c-14.28,4.51-28.57,8.98-42.87,13.37c-1.6,0.5-3.28,0.38-4.92,0.56
	c-7.9,15.88-17.87,27.61-30.26,34.48c-0.71,0.39-1.41,0.95-2.14,1.16c-1.66,0.46-3.59,2.57-4.95-0.12
	c-1.19-2.36,0.38-4.71,1.06-6.83c1.56-4.82,3.31-9.5,4.96-14.25c0.68-1.96,1.92-3.74,0.98-6.29C7.99,103.35,4,103.96,0,104.48V22.83
	c0.67,0.89,1.32,1.83,1.94,2.8c3.34,5.24,6.97,5.98,11.38,4.95c19.72-4.66,39.55-6.11,59.47-4.34c18.8,1.67,37.22,6.38,54.87,16.69
	C128.98,43.72,131.35,43.91,131.31,46.29z"/>
<path opacity="0.2" fill="#0E3B96" fill-opacity="0.2" enable-background="new    " d="M428,37.84v21.64
	c-1.71,0.56-3.5,0.89-5.23,1.34c-1.11,0.3-2.28,0.07-3.43,0.12c-1.32,0.06-2.46,0.63-1.68,3.07c1.07,3.35-0.21,4.81-1.78,6.5
	c-4.76,5.07-10.04,8.19-15.69,9.97c-14.28,4.51-28.57,8.98-42.87,13.37c-1.6,0.5-3.28,0.38-4.92,0.56
	c-7.9,15.88-17.87,27.61-30.26,34.48c-0.71,0.39-1.41,0.95-2.14,1.16c-1.66,0.46-3.59,2.57-4.95-0.12
	c-1.19-2.36,0.38-4.71,1.06-6.83c1.56-4.82,3.31-9.5,4.96-14.25c0.68-1.96,1.92-3.74,0.98-6.29c-11.29,2.27-22.66,3.05-33.99,4.46
	c-5.74,0.72-11.39-0.59-17.05-1.36c-3.03-0.41-6.05-0.69-9.08-0.73c-1.94,2.08-3.45,7.66-6.35,1.48c-0.57-1.21-1.9,0.08-2.85,0.51
	c-2.76,1.26-5.52,2.5-9.06,4.1c1.62-3.51,3.02-6,2.69-9.42c-9.61-1.62-19.22-3.26-28.83-4.89c-1.29,1.47-2.57,3.73-4.26,2.99
	c-1.29-0.56-1.39-2.92-1.1-4.92c-3.87-0.52-7.74-1.04-11.62-1.56c-7.19,12.48-14.15,25.27-22.29,36.42
	c-2.37,3.24-4.85,6.31-7.92,7.92c-1.49,0.78-3.01,2.06-5.33,0.54c4.62-4.51,4.94-11.4,5.57-18.27c0.73-7.83,2.06-15.51,3.8-22.97
	c0.82-3.48,0.8-6.75-0.14-10.11c-2.37-8.42-5.44-16.18-9.86-22.49c-5.05-7.21-9.59-15.07-14.06-23.41c0.98-1.27,1.96-0.66,2.83-0.25
	c7.02,3.28,13.83,7.24,20.64,11.54c10.3,6.5,18.7,16.03,26.15,28.07c0.53,0.86,1.19,2.02,1.94,1.52c4-2.71,9.42-1.17,11.79-8.75
	c0.81-2.61,2.04-1.89,3.18-1.14c2.26,1.48,4.38,1.02,6.68,0.01c18.11-7.94,36.24-15.77,54.39-23.53c6.38-2.73,9.17-8.47,8.7-18.52
	c-0.42-8.91-2.08-17.44-3.61-26c-0.21-1.22-1.19-2.48-0.42-3.67c0.03-0.05,0.06-0.09,0.09-0.13h2.49c0.1,0.05,0.2,0.1,0.3,0.16
	c5.77,3.15,11.41,6.68,16.24,12.59c3.47,4.25,7.23,8.05,10.31,12.88c3.34,5.24,6.97,5.98,11.38,4.95
	c19.72-4.66,39.55-6.11,59.47-4.34C398.25,27.61,413.35,31,428,37.84z"/>
<path opacity="0.2" fill="#0E3B96" fill-opacity="0.2" enable-background="new    " d="M262.24,200.37c-0.04,2.65-2.2,3.9-3.74,5.2
	c-0.43,0.36-0.99,0.34-1.49,0.49c-3.21,7.31-8.48,7.53-13.4,8.84c-1.11,0.3-2.28,0.07-3.43,0.12c-1.32,0.06-2.47,0.63-1.68,3.07
	c1.07,3.35-0.21,4.81-1.78,6.5c-4.75,5.07-10.04,8.19-15.69,9.97c-14.28,4.51-28.58,8.98-42.87,13.37c-1.6,0.5-3.28,0.38-4.92,0.56
	c-7.9,15.88-17.87,27.61-30.26,34.48c-0.71,0.39-1.41,0.95-2.14,1.16c-1.66,0.46-3.59,2.57-4.95-0.12
	c-1.19-2.36,0.38-4.71,1.06-6.83c1.56-4.82,3.31-9.5,4.96-14.25c0.68-1.96,1.92-3.74,0.98-6.29c-11.29,2.27-22.66,3.05-33.99,4.46
	c-5.74,0.72-11.39-0.59-17.05-1.35c-3.03-0.41-6.05-0.7-9.08-0.73c-1.94,2.08-3.45,7.66-6.35,1.48c-0.57-1.2-1.9,0.08-2.85,0.51
	c-2.76,1.26-5.52,2.5-9.06,4.1c1.62-3.51,3.02-6,2.69-9.42c-9.61-1.62-19.22-3.26-28.83-4.89c-1.29,1.47-2.57,3.73-4.26,2.99
	c-1.29-0.56-1.39-2.92-1.09-4.92c-3.87-0.52-7.74-1.04-11.62-1.56C14.47,259.3,7.76,271.62,0,282.46v-72.48
	c7.92,6.21,14.69,14.41,20.8,24.29c0.53,0.86,1.19,2.01,1.94,1.52c4-2.71,9.42-1.17,11.79-8.75c0.81-2.61,2.04-1.89,3.19-1.13
	c2.26,1.48,4.38,1.02,6.68,0.01c18.11-7.93,36.24-15.77,54.38-23.53c6.38-2.73,9.17-8.47,8.7-18.52c-0.42-8.91-2.08-17.44-3.61-26
	c-0.21-1.22-1.19-2.48-0.42-3.67c0.03-0.05,0.06-0.09,0.09-0.13h2.49c0.1,0.05,0.2,0.1,0.3,0.16c5.76,3.15,11.41,6.68,16.24,12.59
	c3.47,4.25,7.24,8.05,10.31,12.88c3.34,5.24,6.97,5.98,11.38,4.95c19.72-4.66,39.55-6.1,59.47-4.34
	c18.8,1.67,37.22,6.38,54.87,16.69C259.91,197.8,262.27,197.98,262.24,200.37z"/>
<path opacity="0.2" fill="#0E3B96" fill-opacity="0.2" enable-background="new    " d="M428,154.34v1.95
	C427.79,155.64,427.65,154.98,428,154.34z"/>
<path opacity="0.2" fill="#0E3B96" fill-opacity="0.2" enable-background="new    " d="M423.41,202.4c1.81-0.78,3.35-1.81,4.59-3.1
	v61.93c-3.85-0.21-7.68-0.97-11.52-1.49c-3.03-0.41-6.05-0.7-9.08-0.73c-1.94,2.08-3.45,7.66-6.35,1.48
	c-0.57-1.2-1.9,0.08-2.85,0.51c-2.76,1.26-5.52,2.5-9.06,4.1c1.62-3.51,3.02-6,2.69-9.42c-9.61-1.62-19.22-3.26-28.83-4.89
	c-1.29,1.47-2.57,3.73-4.26,2.99c-1.29-0.56-1.39-2.92-1.1-4.92c-3.87-0.52-7.74-1.04-11.62-1.56
	c-7.19,12.48-14.15,25.27-22.29,36.42c-2.37,3.24-4.85,6.31-7.92,7.92c-1.49,0.78-3.01,2.06-5.33,0.55
	c4.62-4.51,4.94-11.4,5.57-18.27c0.73-7.83,2.06-15.51,3.8-22.97c0.82-3.48,0.8-6.75-0.14-10.11c-2.37-8.42-5.44-16.18-9.86-22.49
	c-5.05-7.21-9.59-15.07-14.06-23.41c0.98-1.27,1.96-0.66,2.83-0.25c7.02,3.28,13.83,7.24,20.64,11.54
	c10.3,6.5,18.7,16.03,26.15,28.07c0.53,0.86,1.19,2.02,1.94,1.52c4-2.71,9.42-1.17,11.79-8.75c0.81-2.61,2.04-1.89,3.18-1.13
	c2.26,1.48,4.38,1.02,6.68,0.01C387.14,217.99,405.27,210.16,423.41,202.4z"/>
<path opacity="0.2" fill="#0E3B96" fill-opacity="0.2" enable-background="new    " d="M131.31,362.56c-0.04,2.65-2.2,3.9-3.74,5.2
	c-0.43,0.36-0.99,0.34-1.49,0.49c-3.21,7.31-8.48,7.53-13.4,8.84c-1.11,0.3-2.28,0.07-3.43,0.11c-1.32,0.06-2.46,0.63-1.68,3.07
	c1.07,3.35-0.21,4.81-1.78,6.5c-4.75,5.07-10.04,8.19-15.69,9.97c-14.28,4.51-28.57,8.98-42.87,13.37c-1.6,0.5-3.28,0.38-4.92,0.56
	c-7.9,15.88-17.87,27.61-30.26,34.48c-0.71,0.39-1.41,0.95-2.14,1.16c-1.66,0.46-3.59,2.57-4.95-0.12
	c-1.19-2.36,0.38-4.71,1.06-6.84c1.56-4.82,3.31-9.5,4.96-14.25c0.68-1.96,1.92-3.74,0.98-6.29C7.99,419.61,4,420.23,0,420.75V339.1
	c0.67,0.89,1.32,1.83,1.94,2.8c3.34,5.24,6.97,5.98,11.38,4.95c19.72-4.66,39.55-6.11,59.47-4.34c18.8,1.67,37.22,6.38,54.87,16.69
	C128.98,359.99,131.35,360.17,131.31,362.56z"/>
<path opacity="0.2" fill="#0E3B96" fill-opacity="0.2" enable-background="new    " d="M428,354.1v21.64
	c-1.71,0.56-3.5,0.89-5.23,1.34c-1.11,0.3-2.28,0.07-3.43,0.12c-1.32,0.06-2.46,0.62-1.68,3.07c1.07,3.35-0.21,4.81-1.78,6.5
	c-4.76,5.07-10.04,8.19-15.69,9.97c-14.28,4.51-28.57,8.98-42.87,13.37c-1.6,0.5-3.28,0.38-4.92,0.56
	c-7.9,15.88-17.87,27.61-30.26,34.48c-0.71,0.39-1.41,0.95-2.14,1.16c-1.66,0.46-3.59,2.57-4.95-0.12
	c-1.19-2.36,0.38-4.71,1.06-6.84c1.56-4.82,3.31-9.5,4.96-14.25c0.68-1.96,1.92-3.74,0.98-6.29c-11.29,2.27-22.66,3.05-33.99,4.46
	c-5.74,0.72-11.39-0.59-17.05-1.36c-3.03-0.41-6.05-0.69-9.08-0.73c-1.94,2.08-3.45,7.66-6.35,1.48c-0.57-1.21-1.9,0.08-2.85,0.51
	c-2.76,1.26-5.52,2.5-9.06,4.1c1.62-3.51,3.02-6,2.69-9.42c-9.61-1.62-19.22-3.26-28.83-4.89c-1.29,1.47-2.57,3.73-4.26,2.99
	c-1.29-0.56-1.39-2.92-1.1-4.92c-3.87-0.52-7.74-1.04-11.62-1.56c-7.19,12.48-14.15,25.27-22.29,36.42
	c-2.37,3.24-4.85,6.31-7.92,7.92c-1.49,0.78-3.01,2.06-5.33,0.54c4.62-4.51,4.94-11.4,5.57-18.27c0.73-7.83,2.06-15.51,3.8-22.97
	c0.82-3.47,0.8-6.75-0.14-10.11c-2.37-8.42-5.44-16.18-9.86-22.49c-5.05-7.21-9.59-15.07-14.06-23.41c0.98-1.27,1.96-0.66,2.83-0.25
	c7.02,3.28,13.83,7.24,20.64,11.54c10.3,6.5,18.7,16.03,26.15,28.07c0.53,0.86,1.19,2.02,1.94,1.52c4-2.71,9.42-1.17,11.79-8.75
	c0.81-2.61,2.04-1.89,3.18-1.13c2.26,1.48,4.38,1.02,6.68,0.01c18.11-7.93,36.24-15.77,54.39-23.53c6.38-2.73,9.17-8.47,8.7-18.52
	c-0.42-8.91-2.08-17.44-3.61-26c-0.21-1.22-1.19-2.48-0.42-3.67c0.03-0.05,0.06-0.09,0.09-0.13h2.49c0.1,0.05,0.2,0.11,0.3,0.16
	c5.77,3.15,11.41,6.68,16.24,12.59c3.47,4.25,7.23,8.05,10.31,12.88c3.34,5.24,6.97,5.98,11.38,4.95
	c19.72-4.66,39.55-6.11,59.47-4.34C398.25,343.87,413.35,347.27,428,354.1z"/>
<path opacity="0.2" fill="#0E3B96" fill-opacity="0.2" enable-background="new    " d="M262.24,516.64c-0.04,2.65-2.2,3.9-3.74,5.2
	c-0.43,0.36-0.99,0.34-1.49,0.49c-3.21,7.31-8.48,7.53-13.4,8.84c-1.11,0.3-2.28,0.07-3.43,0.11c-1.32,0.06-2.47,0.63-1.68,3.07
	c1.07,3.35-0.21,4.81-1.78,6.5c-4.75,5.08-10.04,8.19-15.69,9.98c-14.28,4.51-28.58,8.98-42.87,13.37c-1.6,0.5-3.28,0.38-4.92,0.56
	c-7.9,15.88-17.87,27.61-30.26,34.48c-0.71,0.39-1.41,0.95-2.14,1.16c-1.66,0.46-3.59,2.57-4.95-0.12
	c-1.19-2.36,0.38-4.71,1.06-6.83c1.56-4.82,3.31-9.5,4.96-14.25c0.68-1.96,1.92-3.74,0.98-6.29c-11.29,2.27-22.66,3.05-33.99,4.46
	c-5.74,0.72-11.39-0.59-17.05-1.35c-3.03-0.41-6.05-0.7-9.08-0.73c-1.94,2.09-3.45,7.66-6.35,1.48c-0.57-1.21-1.9,0.08-2.85,0.51
	c-2.76,1.26-5.52,2.5-9.06,4.1c1.62-3.51,3.02-6,2.69-9.42c-9.61-1.62-19.22-3.26-28.83-4.89c-1.29,1.47-2.57,3.73-4.26,2.99
	c-1.29-0.56-1.39-2.92-1.09-4.92c-3.87-0.52-7.74-1.04-11.62-1.56C14.47,575.57,7.76,587.88,0,598.73v-72.47
	c7.92,6.21,14.69,14.41,20.8,24.29c0.53,0.86,1.19,2.02,1.94,1.52c4-2.71,9.42-1.17,11.79-8.75c0.81-2.61,2.04-1.89,3.19-1.14
	c2.26,1.48,4.38,1.02,6.68,0.01c18.11-7.94,36.24-15.77,54.38-23.53c6.38-2.73,9.17-8.47,8.7-18.53c-0.42-8.91-2.08-17.43-3.61-26
	c-0.21-1.22-1.19-2.48-0.42-3.67c0.03-0.05,0.06-0.09,0.09-0.13h2.49c0.1,0.05,0.2,0.11,0.3,0.16c5.76,3.15,11.41,6.68,16.24,12.59
	c3.47,4.25,7.24,8.05,10.31,12.88c3.34,5.24,6.97,5.98,11.38,4.95c19.72-4.66,39.55-6.11,59.47-4.34
	c18.8,1.67,37.22,6.38,54.87,16.69C259.91,514.06,262.27,514.25,262.24,516.64z"/>
<path opacity="0.2" fill="#0E3B96" fill-opacity="0.2" enable-background="new    " d="M428,470.61v1.95
	C427.79,471.91,427.65,471.25,428,470.61z"/>
<path opacity="0.2" fill="#0E3B96" fill-opacity="0.2" enable-background="new    " d="M423.41,518.66
	c1.81-0.78,3.35-1.81,4.59-3.11v61.93c-3.85-0.21-7.68-0.97-11.52-1.49c-3.03-0.41-6.05-0.7-9.08-0.73
	c-1.94,2.09-3.45,7.66-6.35,1.48c-0.57-1.21-1.9,0.08-2.85,0.51c-2.76,1.26-5.52,2.5-9.06,4.1c1.62-3.51,3.02-6,2.69-9.42
	c-9.61-1.62-19.22-3.26-28.83-4.89c-1.29,1.47-2.57,3.73-4.26,2.99c-1.29-0.56-1.39-2.92-1.1-4.92c-3.87-0.52-7.74-1.04-11.62-1.56
	c-7.19,12.48-14.15,25.27-22.29,36.42c-2.37,3.24-4.85,6.31-7.92,7.92c-1.49,0.78-3.01,2.06-5.33,0.54
	c4.62-4.51,4.94-11.4,5.57-18.27c0.73-7.83,2.06-15.51,3.8-22.97c0.82-3.48,0.8-6.75-0.14-10.11c-2.37-8.42-5.44-16.18-9.86-22.49
	c-5.05-7.21-9.59-15.07-14.06-23.41c0.98-1.27,1.96-0.66,2.83-0.25c7.02,3.28,13.83,7.24,20.64,11.54
	c10.3,6.5,18.7,16.03,26.15,28.07c0.53,0.86,1.19,2.02,1.94,1.52c4-2.71,9.42-1.17,11.79-8.75c0.81-2.61,2.04-1.89,3.18-1.14
	c2.26,1.48,4.38,1.02,6.68,0.01C387.14,534.26,405.27,526.42,423.41,518.66z"/>
<path opacity="0.2" fill="#0E3B96" fill-opacity="0.2" enable-background="new    " d="M131.31,688.09c-0.04,2.65-2.2,3.9-3.74,5.2
	c-0.43,0.36-0.99,0.34-1.49,0.49c-3.21,7.31-8.48,7.53-13.4,8.84c-1.11,0.3-2.28,0.07-3.43,0.12c-1.32,0.06-2.46,0.63-1.68,3.07
	c1.07,3.35-0.21,4.81-1.78,6.5c-4.75,5.07-10.04,8.19-15.69,9.97c-14.28,4.51-28.57,8.98-42.87,13.37c-1.6,0.5-3.28,0.38-4.92,0.56
	c-7.9,15.88-17.87,27.61-30.26,34.48c-0.71,0.39-1.41,0.95-2.14,1.16c-1.66,0.46-3.59,2.57-4.95-0.12
	c-1.19-2.36,0.38-4.72,1.06-6.84c1.56-4.82,3.31-9.5,4.96-14.25c0.68-1.96,1.92-3.74,0.98-6.29C7.99,745.15,4,745.76,0,746.28
	v-81.65c0.67,0.89,1.32,1.83,1.94,2.8c3.34,5.24,6.97,5.98,11.38,4.95c19.72-4.66,39.55-6.1,59.47-4.34
	c18.8,1.67,37.22,6.38,54.87,16.69C128.98,685.52,131.35,685.7,131.31,688.09z"/>
<path opacity="0.2" fill="#0E3B96" fill-opacity="0.2" enable-background="new    " d="M428,679.63v21.64
	c-1.71,0.56-3.5,0.89-5.23,1.34c-1.11,0.3-2.28,0.07-3.43,0.12c-1.32,0.06-2.46,0.63-1.68,3.07c1.07,3.35-0.21,4.81-1.78,6.5
	c-4.76,5.07-10.04,8.19-15.69,9.97c-14.28,4.51-28.57,8.98-42.87,13.37c-1.6,0.5-3.28,0.38-4.92,0.56
	c-7.9,15.88-17.87,27.61-30.26,34.48c-0.71,0.39-1.41,0.95-2.14,1.16c-1.66,0.46-3.59,2.57-4.95-0.12
	c-1.19-2.36,0.38-4.72,1.06-6.84c1.56-4.82,3.31-9.5,4.96-14.25c0.68-1.96,1.92-3.74,0.98-6.29c-11.29,2.27-22.66,3.05-33.99,4.46
	c-5.74,0.72-11.39-0.59-17.05-1.36c-3.03-0.41-6.05-0.7-9.08-0.73c-1.94,2.09-3.45,7.66-6.35,1.48c-0.57-1.21-1.9,0.08-2.85,0.51
	c-2.76,1.26-5.52,2.5-9.06,4.1c1.62-3.51,3.02-6,2.69-9.42c-9.61-1.62-19.22-3.26-28.83-4.89c-1.29,1.47-2.57,3.73-4.26,2.99
	c-1.29-0.56-1.39-2.92-1.1-4.92c-3.87-0.52-7.74-1.04-11.62-1.56c-7.19,12.48-14.15,25.27-22.29,36.42
	c-2.37,3.24-4.85,6.31-7.92,7.92c-1.49,0.78-3.01,2.06-5.33,0.55c4.62-4.51,4.94-11.4,5.57-18.27c0.73-7.83,2.06-15.51,3.8-22.97
	c0.82-3.48,0.8-6.75-0.14-10.11c-2.37-8.42-5.44-16.18-9.86-22.49c-5.05-7.2-9.59-15.07-14.06-23.41c0.98-1.27,1.96-0.66,2.83-0.25
	c7.02,3.28,13.83,7.24,20.64,11.54c10.3,6.5,18.7,16.03,26.15,28.07c0.53,0.86,1.19,2.02,1.94,1.52c4-2.71,9.42-1.17,11.79-8.75
	c0.81-2.61,2.04-1.89,3.18-1.14c2.26,1.48,4.38,1.02,6.68,0.01c18.11-7.93,36.24-15.77,54.39-23.53c6.38-2.73,9.17-8.47,8.7-18.52
	c-0.42-8.91-2.08-17.43-3.61-26c-0.21-1.22-1.19-2.48-0.42-3.67c0.03-0.05,0.06-0.09,0.09-0.13h2.49c0.1,0.05,0.2,0.11,0.3,0.16
	c5.77,3.15,11.41,6.68,16.24,12.59c3.47,4.25,7.23,8.05,10.31,12.88c3.34,5.24,6.97,5.98,11.38,4.95
	c19.72-4.66,39.55-6.1,59.47-4.34C398.25,669.4,413.35,672.8,428,679.63z"/>
<path opacity="0.2" fill="#0E3B96" fill-opacity="0.2" enable-background="new    " d="M0,851.78c4.13,3.23,7.93,7,11.5,11.28H0
	V851.78z"/>
<path opacity="0.2" fill="#0E3B96" fill-opacity="0.2" enable-background="new    " d="M262.24,842.17c-0.04,2.65-2.2,3.9-3.74,5.2
	c-0.43,0.36-0.99,0.34-1.49,0.49c-3.21,7.31-8.48,7.53-13.4,8.84c-1.11,0.3-2.28,0.07-3.43,0.12c-1.32,0.06-2.47,0.63-1.68,3.07
	c0.42,1.31,0.48,2.33,0.31,3.19H55.06c14.56-6.35,29.13-12.64,43.72-18.87c6.38-2.73,9.17-8.47,8.7-18.52
	c-0.42-8.91-2.08-17.43-3.61-26c-0.21-1.22-1.19-2.48-0.42-3.67c0.03-0.05,0.06-0.09,0.09-0.13h2.49c0.1,0.05,0.2,0.1,0.3,0.16
	c5.76,3.15,11.41,6.68,16.24,12.59c3.47,4.25,7.24,8.05,10.31,12.88c3.34,5.24,6.97,5.98,11.38,4.95
	c19.72-4.66,39.55-6.1,59.47-4.34c18.8,1.67,37.22,6.38,54.87,16.69C259.91,839.6,262.27,839.78,262.24,842.17z"/>
<path opacity="0.2" fill="#0E3B96" fill-opacity="0.2" enable-background="new    " d="M319.29,848.01
	c6.24,3.94,11.78,8.99,16.84,15.06h-24.36c-0.6-1.01-1.23-1.98-1.9-2.93c-5.05-7.2-9.59-15.07-14.06-23.41
	c0.98-1.27,1.96-0.66,2.83-0.25C305.67,839.75,312.49,843.71,319.29,848.01z"/>
<path opacity="0.2" fill="#0E3B96" fill-opacity="0.2" enable-background="new    " d="M428,796.14v1.95
	C427.79,797.44,427.65,796.78,428,796.14z"/>
<path opacity="0.2" fill="#0E3B96" fill-opacity="0.2" enable-background="new    " d="M423.41,844.2c1.81-0.78,3.35-1.81,4.59-3.1
	v21.98h-48.3C394.26,856.72,408.83,850.43,423.41,844.2z"/>
</svg>
