<?xml version="1.0" encoding="utf-8"?>
<!-- Generator: Adobe Illustrator 26.3.1, SVG Export Plug-In . SVG Version: 6.00 Build 0)  -->
<svg version="1.1" id="Camada_1" xmlns="http://www.w3.org/2000/svg" xmlns:xlink="http://www.w3.org/1999/xlink" x="0px" y="0px"
	 viewBox="0 0 25 25" enable-background="new 0 0 25 25" xml:space="preserve">
<path fill="#0A2D54" d="M24.37,9.16h-1.83c-0.26,0-0.49-0.16-0.59-0.4c-0.04-0.09-0.07-0.18-0.11-0.27
	c-0.1-0.23-0.04-0.51,0.14-0.69l1.24-1.24c0.25-0.25,0.25-0.65,0-0.9l-4-4c-0.25-0.25-0.65-0.25-0.9,0L17.07,2.9
	c-0.18,0.18-0.45,0.24-0.69,0.14c-0.05-0.02-0.1-0.04-0.15-0.06c-0.24-0.1-0.39-0.33-0.39-0.59V0.63c0-0.35-0.28-0.63-0.63-0.63
	H9.55C9.2,0,8.91,0.28,8.91,0.63v1.76c0,0.26-0.15,0.49-0.39,0.59C8.47,3,8.42,3.02,8.37,3.04C8.13,3.14,7.86,3.08,7.68,2.9
	L6.44,1.66c-0.25-0.25-0.65-0.25-0.9,0l-4,4c-0.25,0.25-0.25,0.65,0,0.9L2.78,7.8c0.18,0.18,0.24,0.45,0.14,0.69
	C2.88,8.58,2.84,8.67,2.81,8.76C2.71,9,2.48,9.16,2.22,9.16H0.63C0.28,9.16,0,9.44,0,9.79v5.66c0,0.35,0.28,0.63,0.63,0.63h1.67
	c0.26,0,0.5,0.16,0.6,0.4c0.1,0.25,0.05,0.53-0.14,0.72l-1.23,1.23c-0.25,0.25-0.25,0.65,0,0.9l4,4c0.25,0.25,0.65,0.25,0.9,0
	l1.24-1.24c0.18-0.18,0.45-0.24,0.69-0.14c0.05,0.02,0.1,0.04,0.15,0.06c0.24,0.1,0.39,0.33,0.39,0.59v1.76
	C8.91,24.72,9.2,25,9.55,25h5.66c0.35,0,0.63-0.28,0.63-0.63v-1.76c0-0.26,0.15-0.49,0.39-0.59c0.05-0.02,0.1-0.04,0.15-0.06
	c0.24-0.1,0.51-0.05,0.69,0.14l1.24,1.24c0.25,0.25,0.65,0.25,0.9,0l4-4c0.25-0.25,0.25-0.65,0-0.9l-1.23-1.23
	c-0.19-0.19-0.24-0.47-0.14-0.72c0.1-0.24,0.34-0.4,0.6-0.4h1.92c0.35,0,0.63-0.28,0.63-0.63V9.79C25,9.44,24.72,9.16,24.37,9.16z
	 M12.5,19.68c-3.96,0-7.18-3.21-7.18-7.18c0-3.96,3.21-7.18,7.18-7.18s7.18,3.21,7.18,7.18C19.68,16.46,16.46,19.68,12.5,19.68z"/>
</svg>
