<?xml version="1.0" encoding="utf-8"?>
<!-- Generator: Adobe Illustrator 26.3.1, SVG Export Plug-In . SVG Version: 6.00 Build 0)  -->
<svg version="1.1" id="Camada_1" xmlns="http://www.w3.org/2000/svg" xmlns:xlink="http://www.w3.org/1999/xlink" x="0px" y="0px"
	 viewBox="0 0 35.35 50.56" enable-background="new 0 0 35.35 50.56" xml:space="preserve">
<path fill="#0E3B96" d="M33,0H2C0.9,0,0,0.9,0,2c0,0.43,0.14,0.83,0.37,1.15c0.08,0.31,14.63,15,14.63,15v30.57
	c0,1.01,0.82,1.83,1.83,1.83h0.35c1.01,0,1.83-0.82,1.83-1.83V17.48C19,16.68,6,4,6,4h23c0,0-7,6.59-7,7.39v31.44
	c0,0.96,0.78,1.73,1.73,1.73h0.54c0.96,0,1.73-0.78,1.73-1.73V12.21l8.82-8.82C35.53,2.68,36,0,33,0z"/>
</svg>
