<?xml version="1.0" encoding="utf-8"?>
<!-- Generator: Adobe Illustrator 26.3.1, SVG Export Plug-In . SVG Version: 6.00 Build 0)  -->
<svg version="1.1" id="Camada_1" xmlns="http://www.w3.org/2000/svg" xmlns:xlink="http://www.w3.org/1999/xlink" x="0px" y="0px"
	 viewBox="0 0 23.03 20.86" enable-background="new 0 0 23.03 20.86" xml:space="preserve">
<path fill="none" stroke="#FFFFFF" stroke-miterlimit="10" d="M0,20.86"/>
<g>
	<path fill="none" stroke="#FFFFFF" stroke-linecap="round" stroke-miterlimit="10" d="M6.97,8.58v8.22c0,0.76,0.61,1.37,1.37,1.37
		h2.24c0.76,0,1.37-0.61,1.37-1.37v-1.85c0-0.76,0.61-1.37,1.37-1.37h0c0.76,0,1.37,0.61,1.37,1.37v1.85c0,0.76,0.61,1.37,1.37,1.37
		h2.24c0.76,0,1.37-0.61,1.37-1.37V8.58"/>
	<path fill="none" stroke="#FFFFFF" stroke-linecap="round" stroke-miterlimit="10" d="M22.53,9.51l-9.13-8.98
		c-0.04-0.04-0.11-0.04-0.16,0L4.12,9.51"/>
	<line fill="none" stroke="#FFFFFF" stroke-linecap="round" stroke-miterlimit="10" x1="7.75" y1="2.25" x2="7.75" y2="5.94"/>
</g>
</svg>
