<?xml version="1.0" encoding="utf-8"?>
<!-- Generator: Adobe Illustrator 26.3.1, SVG Export Plug-In . SVG Version: 6.00 Build 0)  -->
<svg version="1.1" id="Camada_1" xmlns="http://www.w3.org/2000/svg" xmlns:xlink="http://www.w3.org/1999/xlink" x="0px" y="0px"
	 viewBox="0 0 21.79 36.21" enable-background="new 0 0 21.79 36.21" xml:space="preserve">
<g>
	<path fill="#0A2D54" d="M2.4,32.89c0.69,0.38,1.27,0.9,1.7,1.51c-0.72,0.54-1.52,1.1-2.2,1.58C1.1,36.55,0,35.98,0,35
		c0-0.84,0-1.81,0.03-2.72C0.83,32.29,1.65,32.48,2.4,32.89z"/>
	<path fill="#0A2D54" d="M18.29,10.79L6.48,32.37c-0.14,0.26-0.81,0.83-1.69,1.5c-0.44-0.76-1.09-1.41-1.92-1.86
		c-0.9-0.49-1.88-0.67-2.83-0.59c0.06-1.17,0.15-2.14,0.29-2.41L12.13,7.46L18.29,10.79z"/>
	<path fill="#0A2D54" d="M21.37,5.16c0,0.01,0,0.01-0.01,0.02l-2.59,4.74l-6.16-3.33l2.6-4.77c0.93-1.69,3.05-2.32,4.75-1.39
		C21.66,1.36,22.29,3.47,21.37,5.16z"/>
</g>
</svg>
