<?xml version="1.0" encoding="utf-8"?>
<!-- Generator: Adobe Illustrator 26.3.1, SVG Export Plug-In . SVG Version: 6.00 Build 0)  -->
<svg version="1.1" id="Camada_1" xmlns="http://www.w3.org/2000/svg" xmlns:xlink="http://www.w3.org/1999/xlink" x="0px" y="0px"
	 viewBox="0 0 20 25" enable-background="new 0 0 20 25" xml:space="preserve">
<g>
	<path fill="#0E3B96" d="M20,1.66v1.09C20,3.44,19.44,4,18.75,4H1.25C0.56,4,0,3.44,0,2.75V1.66C0,0.19,1.19,0,2.66,0h14.68
		C18.81,0,20,0.19,20,1.66z"/>
	<path fill="#0E3B96" d="M1.09,5v17.34c0,1.47,1.06,2.66,2.37,2.66h13.09c1.3,0,2.36-1.19,2.36-2.66V5H1.09z M4.88,23.31
		c0,0.39-0.2,0.69-0.44,0.69H3.99c-0.25,0-0.45-0.3-0.45-0.69V6.69C3.54,6.3,3.74,6,3.99,6h0.45c0.24,0,0.44,0.3,0.44,0.69V23.31z
		 M8.74,23.31C8.74,23.7,8.55,24,8.3,24H7.84c-0.24,0-0.44-0.3-0.44-0.69V6.69C7.41,6.3,7.6,6,7.84,6H8.3c0.25,0,0.45,0.3,0.45,0.69
		V23.31z M12.6,23.31c0,0.39-0.2,0.69-0.44,0.69h-0.45c-0.25,0-0.45-0.3-0.45-0.69V6.69c0-0.39,0.2-0.69,0.45-0.69h0.45
		c0.24,0,0.44,0.3,0.44,0.69V23.31z M16.46,23.31c0,0.39-0.2,0.69-0.44,0.69h-0.45c-0.25,0-0.45-0.3-0.45-0.69V6.69
		c0-0.39,0.2-0.69,0.45-0.69h0.45c0.24,0,0.44,0.3,0.44,0.69V23.31z"/>
</g>
</svg>
