<?xml version="1.0" encoding="utf-8"?>
<!-- Generator: Adobe Illustrator 26.3.1, SVG Export Plug-In . SVG Version: 6.00 Build 0)  -->
<svg version="1.1" id="Camada_1" xmlns="http://www.w3.org/2000/svg" xmlns:xlink="http://www.w3.org/1999/xlink" x="0px" y="0px"
	 viewBox="0 0 190 81" enable-background="new 0 0 190 81" xml:space="preserve">
<g id="Grupo_7415" transform="translate(630 1222)">
	<g transform="matrix(1, 0, 0, 1, -630, -1222)">
		<path id="Subtração_2-2" fill="#2E8CFF" d="M165,81H25c-3.34,0.01-6.65-0.66-9.73-1.97c-2.97-1.25-5.67-3.07-7.95-5.36
			c-2.28-2.28-4.1-4.98-5.36-7.95C0.66,62.65-0.01,59.34,0,56V25c-0.01-3.34,0.66-6.65,1.96-9.73C3.22,12.3,5.04,9.6,7.32,7.32
			c2.28-2.28,4.98-4.1,7.95-5.36C18.35,0.66,21.66-0.01,25,0h140c3.54-0.01,7.04,0.74,10.27,2.2c3.12,1.4,5.91,3.43,8.21,5.96
			c-4.35-2.6-9.33-3.98-14.41-3.97C153.57,4.2,141.01,16.76,141,32.26c0,4.47,2.42,12.03,6.65,20.74
			c3.87,7.98,8.79,15.94,12.84,20.79c2.12,2.54,5.27,4.01,8.58,4.01c3.31,0,6.46-1.46,8.58-4.01c4.82-6.13,8.96-12.76,12.35-19.78
			V56c0.01,3.34-0.66,6.65-1.96,9.73c-1.25,2.97-3.07,5.67-5.36,7.95c-2.28,2.28-4.98,4.1-7.95,5.36
			C171.65,80.34,168.34,81.01,165,81z M169.28,46.33c-7.98-0.01-14.44-6.47-14.45-14.45c0.01-7.98,6.47-14.44,14.45-14.45
			c7.98,0.01,14.44,6.47,14.45,14.45C183.72,39.86,177.26,46.32,169.28,46.33L169.28,46.33z"/>
	</g>
	<text transform="matrix(1 0 0 1 -619.9999 -1173)" fill="#FFFFFF" font-family="'Montserrat-Regular'" font-size="23px">Locais</text>
</g>
</svg>
