<?xml version="1.0" encoding="utf-8"?>
<!-- Generator: Adobe Illustrator 26.3.1, SVG Export Plug-In . SVG Version: 6.00 Build 0)  -->
<svg version="1.1" id="Camada_1" xmlns="http://www.w3.org/2000/svg" xmlns:xlink="http://www.w3.org/1999/xlink" x="0px" y="0px"
	 viewBox="0 0 83 83" enable-background="new 0 0 83 83" xml:space="preserve">
<g>
	<g transform="matrix(1, 0, 0, 1, 0, 0)">
		<circle id="Elipse_57-2_00000007391969375134666860000012943397493488578957_" fill="#0E3B96" cx="41.5" cy="41.5" r="41.5"/>
	</g>
	<path fill="#FFFFFF" d="M65.22,31H17.78c-2.36,0-4.28-1.91-4.28-4.28v-0.45c0-2.36,1.91-4.28,4.28-4.28h47.45
		c2.36,0,4.28,1.91,4.28,4.28v0.45C69.5,29.09,67.59,31,65.22,31z"/>
	<path fill="#FFFFFF" d="M65.22,46H17.78c-2.36,0-4.28-1.91-4.28-4.28v-0.45c0-2.36,1.91-4.28,4.28-4.28h47.45
		c2.36,0,4.28,1.91,4.28,4.28v0.45C69.5,44.09,67.59,46,65.22,46z"/>
	<path fill="#FFFFFF" d="M65.22,61H17.78c-2.36,0-4.28-1.91-4.28-4.28v-0.45c0-2.36,1.91-4.28,4.28-4.28h47.45
		c2.36,0,4.28,1.91,4.28,4.28v0.45C69.5,59.09,67.59,61,65.22,61z"/>
</g>
</svg>
