<?xml version="1.0" encoding="utf-8"?>
<!-- Generator: Adobe Illustrator 26.3.1, SVG Export Plug-In . SVG Version: 6.00 Build 0)  -->
<svg version="1.1" id="Camada_1" xmlns="http://www.w3.org/2000/svg" xmlns:xlink="http://www.w3.org/1999/xlink" x="0px" y="0px"
	 viewBox="0 0 83 83" enable-background="new 0 0 83 83" xml:space="preserve">
<g>
	<defs>
		<rect id="SVGID_1_" width="83" height="83"/>
	</defs>
	<clipPath id="SVGID_00000137126131847484218570000003242232595378245770_">
		<use xlink:href="#SVGID_1_"  overflow="visible"/>
	</clipPath>
	<g id="Grupo_7367" clip-path="url(#SVGID_00000137126131847484218570000003242232595378245770_)">
		<path id="Caminho_209" fill="#0E3B96" d="M41.5,0C64.42,0,83,18.58,83,41.5S64.42,83,41.5,83S0,64.42,0,41.5S18.58,0,41.5,0"/>
		<path id="Caminho_210" fill="#FFFFFF" d="M65.22,31H17.78c-2.36,0-4.28-1.91-4.28-4.28c0,0,0,0,0,0v-0.45
			c0-2.36,1.91-4.28,4.27-4.28c0,0,0,0,0,0h47.45c2.36,0,4.28,1.91,4.28,4.28l0,0v0.45C69.5,29.09,67.59,31,65.22,31L65.22,31"/>
		<path id="Caminho_211" fill="#FFFFFF" d="M50.84,46H17.16c-2.02,0-3.66-1.64-3.66-3.66v-1.68c0-2.02,1.64-3.66,3.66-3.66h33.68
			c2.02,0,3.66,1.64,3.66,3.66l0,0v1.68C54.5,44.36,52.86,46,50.84,46L50.84,46"/>
		<path id="Caminho_212" fill="#FFFFFF" d="M38.48,61H16.52c-1.67,0-3.02-1.35-3.02-3.02v-2.95c0-1.67,1.35-3.02,3.02-3.02h21.95
			c1.67,0,3.02,1.35,3.02,3.02v2.95C41.5,59.65,40.15,61,38.48,61L38.48,61"/>
	</g>
</g>
</svg>
