<?xml version="1.0" encoding="utf-8"?>
<!-- Generator: Adobe Illustrator 26.3.1, SVG Export Plug-In . SVG Version: 6.00 Build 0)  -->
<svg version="1.1" id="Camada_1" xmlns="http://www.w3.org/2000/svg" xmlns:xlink="http://www.w3.org/1999/xlink" x="0px" y="0px"
	 viewBox="0 0 25 25" enable-background="new 0 0 25 25" xml:space="preserve">
<g>
	<circle fill="#0A2D54" cx="12.5" cy="12.5" r="12.5"/>
	<path fill="#FFFFFF" d="M19.9,9.88h-4.65V5.14c0-1.05-0.85-1.89-1.89-1.89h-1.71c-1.05,0-1.89,0.85-1.89,1.89v4.73H5.1
		c-1.02,0-1.85,0.83-1.85,1.85v1.55c0,1.02,0.83,1.85,1.85,1.85h4.65v4.73c0,1.05,0.85,1.89,1.89,1.89h1.71
		c1.05,0,1.89-0.85,1.89-1.89v-4.73h4.65c1.02,0,1.85-0.83,1.85-1.85v-1.55C21.75,10.7,20.92,9.88,19.9,9.88z"/>
</g>
</svg>
