<?xml version="1.0" encoding="utf-8"?>
<!-- Generator: Adobe Illustrator 26.3.1, SVG Export Plug-In . SVG Version: 6.00 Build 0)  -->
<svg version="1.1" id="Camada_1" xmlns="http://www.w3.org/2000/svg" xmlns:xlink="http://www.w3.org/1999/xlink" x="0px" y="0px"
	 viewBox="0 0 28.5 36.38" enable-background="new 0 0 28.5 36.38" xml:space="preserve">
<g>
	<path fill="#0E3B96" d="M7.39,36.38H7.11C5.94,36.38,5,35.44,5,34.27V8.6c0-1.17,0.94-2.11,2.11-2.11h0.28
		c1.17,0,2.11,0.94,2.11,2.11v25.67C9.5,35.44,8.55,36.38,7.39,36.38z"/>
	<path fill="#0E3B96" d="M0.14,7.75L5.52,0.8c0.83-1.07,2.63-1.07,3.45,0l5.38,6.95c0.36,0.46-0.02,1.09-0.66,1.09H0.8
		C0.16,8.85-0.22,8.22,0.14,7.75z"/>
	<path fill="#0E3B96" d="M21.11,0l0.28,0c1.17,0,2.11,0.94,2.11,2.11v25.67c0,1.17-0.94,2.11-2.11,2.11h-0.28
		c-1.17,0-2.11-0.94-2.11-2.11V2.11C19,0.94,19.94,0,21.11,0z"/>
	<path fill="#0E3B96" d="M28.36,28.63l-5.38,6.95c-0.83,1.07-2.63,1.07-3.45,0l-5.38-6.95c-0.36-0.46,0.02-1.09,0.66-1.09h12.9
		C28.34,27.54,28.72,28.17,28.36,28.63z"/>
</g>
</svg>
