<?xml version="1.0" encoding="utf-8"?>
<!-- Generator: Adobe Illustrator 26.3.1, SVG Export Plug-In . SVG Version: 6.00 Build 0)  -->
<svg version="1.1" id="Camada_1" xmlns="http://www.w3.org/2000/svg" xmlns:xlink="http://www.w3.org/1999/xlink" x="0px" y="0px"
	 viewBox="0 0 25 25" enable-background="new 0 0 25 25" xml:space="preserve">
<g id="Grupo_7397">
	<g>
		<defs>
			<rect id="SVGID_1_" width="25" height="25"/>
		</defs>
		<clipPath id="SVGID_00000028325202734701851410000005462681792428865421_">
			<use xlink:href="#SVGID_1_"  overflow="visible"/>
		</clipPath>
		<g id="Grupo_7396" clip-path="url(#SVGID_00000028325202734701851410000005462681792428865421_)">
			<path id="Caminho_324" fill="#0A2D54" d="M0,12.19c0.92,1.46,1.91,2.87,2.99,4.21h8.48c1.34,0.02,2.4,1.11,2.39,2.45
				c-0.01,0.63-0.26,1.23-0.7,1.67c-0.44,0.45-1.05,0.71-1.69,0.71H6.98c1.45,0.91,3.04,1.57,4.7,1.97C13.9,23.65,23.23,24.86,25,25
				V0C8.46,2.88,0,11.59,0,12.19 M12.43,13.18c-1.16,0.01-2.1-0.92-2.11-2.07s0.92-2.1,2.07-2.11c1.16-0.01,2.1,0.92,2.11,2.07
				c0,0.01,0,0.01,0,0.02C14.51,12.24,13.58,13.17,12.43,13.18"/>
		</g>
	</g>
</g>
</svg>
