<?xml version="1.0" encoding="utf-8"?>
<!-- Generator: Adobe Illustrator 26.3.1, SVG Export Plug-In . SVG Version: 6.00 Build 0)  -->
<svg version="1.1" id="Camada_1" xmlns="http://www.w3.org/2000/svg" xmlns:xlink="http://www.w3.org/1999/xlink" x="0px" y="0px"
	 viewBox="0 0 190 81" enable-background="new 0 0 190 81" xml:space="preserve">
<g id="Grupo_7414" transform="translate(630 1222)">
	<g transform="matrix(1, 0, 0, 1, -630, -1222)">
		<path id="Subtração_1-2" fill="#0E3B96" d="M165,81H25c-3.34,0.01-6.65-0.66-9.73-1.97c-2.97-1.25-5.67-3.07-7.95-5.36
			c-2.28-2.28-4.1-4.98-5.36-7.95C0.66,62.65-0.01,59.34,0,56V25c-0.01-3.34,0.66-6.65,1.96-9.73C3.22,12.3,5.04,9.6,7.32,7.32
			c2.28-2.28,4.98-4.1,7.95-5.36C18.35,0.66,21.66-0.01,25,0h140c6.28-0.01,12.34,2.36,16.95,6.63c4.59,4.22,7.43,10.01,7.96,16.23
			c-0.53,0.35-1.03,0.73-1.52,1.14c-0.45,0.39-0.92,0.76-1.37,1.13c-1.09,0.83-2.11,1.75-3.07,2.73c-0.88,1.04-2.19,1.63-3.56,1.6
			c-0.45,0-0.9-0.04-1.34-0.12c-6.13-1.01-12.33-1.52-18.54-1.52c-2.34,0-4.72,0.07-7.07,0.22c-8.09,0.36-16.08,2.05-23.62,5
			c-0.16,0.06-0.31,0.11-0.48,0.15c-0.52,0.15-1.11,0.31-1.1,0.85c0.02,0.68,0.7,1.06,1.31,1.39c0.11,0.06,0.21,0.11,0.3,0.17
			c0.13,0.07,3.73,2.35,5.56,2.65c0.28,0.05,0.57,0.09,0.85,0.15c0.2,0.03,0.41,0.05,0.61,0.05c0.11,0,0.22,0,0.35-0.01
			s0.23-0.01,0.35-0.01h0.17c0.41,0.01,0.67,0.1,0.77,0.28c0.09,0.21,0.07,0.45-0.05,0.64c-0.47,1.03,0.13,1.47,0.77,1.95
			c2.01,1.47,4.31,2.49,6.75,2.99c6.77,1.49,12.81,2.8,18.46,4.01c0.47,0.09,0.96,0.13,1.44,0.13h0.01
			c0.22,0.01,0.45,0.02,0.67,0.03c3.22,4.67,7.75,8.27,13.03,10.35c0.1,0.04,0.19,0.08,0.29,0.12c0.2,0.1,0.42,0.17,0.64,0.23
			c0.19,0.04,0.37,0.1,0.55,0.17c0.27,0.11,0.55,0.18,0.84,0.2c0.3,0,0.58-0.15,0.74-0.4c0.4-0.55,0.08-1.09-0.22-1.62
			c-0.09-0.15-0.17-0.29-0.24-0.43c-0.45-0.97-0.94-1.93-1.42-2.86c-0.24-0.46-0.48-0.94-0.72-1.42c-0.06-0.12-0.13-0.24-0.2-0.35
			c-0.37-0.42-0.46-1.02-0.23-1.53c3.4,0.48,6.87,0.74,10.22,0.99l0.14,0.01V56c0.01,3.34-0.66,6.65-1.96,9.73
			c-1.25,2.97-3.07,5.67-5.36,7.95c-2.28,2.28-4.98,4.1-7.95,5.36C171.65,80.34,168.34,81.01,165,81z"/>
	</g>
	<text transform="matrix(1 0 0 1 -619.9999 -1172.9999)" fill="#FFFFFF" font-family="'Montserrat-Regular'" font-size="23px">Tubarões</text>
</g>
</svg>
