<?xml version="1.0" encoding="utf-8"?>
<!-- Generator: Adobe Illustrator 26.3.1, SVG Export Plug-In . SVG Version: 6.00 Build 0)  -->
<svg version="1.1" id="Camada_1" xmlns="http://www.w3.org/2000/svg" xmlns:xlink="http://www.w3.org/1999/xlink" x="0px" y="0px"
	 viewBox="0 0 190 140" enable-background="new 0 0 190 140" xml:space="preserve">
<g transform="matrix(1, 0, 0, 1, 0, 0)">
	<path id="Retângulo_2687-2" fill="#2E8CFF" d="M25,0h140c13.81,0,25,11.19,25,25v90c0,13.81-11.19,25-25,25H25
		c-13.81,0-25-11.19-25-25V25C0,11.19,11.19,0,25,0z"/>
</g>
<g id="Grupo_7420" transform="translate(1454 1505)">
	<g>
		<defs>
			<rect id="SVGID_1_" x="-1440" y="-1468" width="162" height="66"/>
		</defs>
		<clipPath id="SVGID_00000056396819417964853700000005454704367617668274_">
			<use xlink:href="#SVGID_1_"  overflow="visible"/>
		</clipPath>
		<g id="Grupo_7373" clip-path="url(#SVGID_00000056396819417964853700000005454704367617668274_)">
			<path id="Caminho_228" fill="#0A2D54" d="M-1379.36-1416.8c0.09,3.63,2.07,6.21,4.83,8.28s5.61,4.02,8.63,6.17
				c-1.06,0.41-2.24,0.45-3.32,0.11c-7.83-1.39-15.17-4.74-21.36-9.73c-0.7-0.56-1.44-1.08-2.16-1.62c-0.89-0.93-1.3-2.22-1.11-3.49
				c0.04-0.51,0.55-1.26-0.54-1.34c-0.14-1.5,0.24-3.09-0.87-4.91v5.5l-1.31,0.13c0.08-1.84-0.37-3.67-1.3-5.26
				c-0.01,1.95,0.58,3.81,0.44,5.74l-2.01,0.43c-0.13-1.66-0.15-3.36-1.66-5.08c0.31,2.1,0.55,3.76,0.79,5.41
				c-4.82,0.85-9.63,1.68-14.44,2.56c-1.21,0.07-2.25,0.91-2.57,2.08c-0.2,1.01,0.78,1.49,1.54,1.95l4,2.82
				c-3.5,1.27-6.36,4.08-10.14,3.29c-3.92-0.82-7.81-2.09-10.58-5.33c-0.87-0.97-1.91-1.77-3.06-2.37c-2.32-1.35-3.7-3.86-3.61-6.53
				c0.08-0.88-0.04-1.77-0.34-2.6c-1.03-2.19-0.44-3.48,1.8-4.42c1.88-0.85,4.1-0.39,5.49,1.13c1.71,1.76,2.99,1.99,4.96,0.92
				c11.52-6.31,23.27-12.1,35.83-16.15c4.05-1.25,7.19-4.48,8.32-8.57c1.86-5.65,4.35-11.07,7.41-16.16
				c1.03-1.92,2.77-3.36,4.84-4.02c0.55-0.16,1.11-0.28,1.52,0.27c0.33,0.45,0.12,0.9-0.05,1.37c-2.23,6.06-2.24,12.28-1.18,18.53
				c0.52,2.25,1.77,4.26,3.55,5.73c0.51,0.48,1.19,0.73,1.88,0.72c8.41,0.29,16.82,0.53,25.22,0.93c3.17,0.26,6.26-1.02,8.32-3.44
				c0.74-1.02,1.79-1.77,2.99-2.15c1.09-0.24,1.88-0.15,1.4,1.3c-0.13,0.39-0.23,0.79-0.34,1.19c-0.82,3.18,0.4,5.03,3.69,5.54
				c1.99,0.31,3.99,0.55,5.99,0.78c0.54,0.06,1.26,0.16,1.61-0.12c4.23-3.32,9.46-4.61,14.2-6.86c7-3.4,14.22-6.32,21.61-8.74
				c0.75-0.37,1.6-0.51,2.43-0.41l-0.02-0.02c-0.68,1.48-2.91,2.11-2.38,4.26c-1.89,0.27-2.79,1.9-4.1,2.95
				c-3.88,2.91-7.91,5.62-12.07,8.12c-3.83,2.37-7.4,5.15-10.64,8.28c-0.98,0.88-1.49,2.18-1.36,3.49c0.24,2.54,0.77,5.05,1.58,7.46
				c0.17,0.54,0.88,1.22,0.25,1.67s-1.3-0.22-1.82-0.64c-2.03-1.58-3.73-3.54-5-5.78c-1.15-2.28-2.65-4.36-4.44-6.18
				c1.55-0.03,3.11-0.03,4.44-1.63c-2.92-0.39-5.44-1.13-8.08-1.38c-7.85-0.77-15.7-0.07-23.53,0.19c-3.42-0.02-6.8,0.68-9.93,2.06
				c-11.42,5.51-24.02,7.13-36.05,10.63c0.15-1.28-0.16-2.57-0.87-3.64v3.94c-0.68-1.08,0.13-2.74-1.7-3.86
				c0.41,1.29,0.56,2.65,0.45,4c-0.04,1.43,0.76,0.64,1.31,0.49l0.39,0.26c0.52,0.81,1.35,0.46,2.07,0.54
				C-1386.14-1417.62-1382.64-1418.1-1379.36-1416.8 M-1418.96-1406.91c-0.57,0.14-1.24,0.32-1.29,1.05
				c-0.05,0.67,0.58,0.64,1.04,0.63c0.65-0.01,1.29-0.18,1.31-0.96C-1417.89-1406.8-1418.4-1406.92-1418.96-1406.91"/>
			<path id="Caminho_229" fill="#FFFFFF" d="M-1391.18-1419.74c12.04-3.5,24.64-5.12,36.07-10.64c3.13-1.38,6.51-2.08,9.93-2.06
				c7.84-0.26,15.68-0.96,23.53-0.19c2.64,0.26,5.16,1,8.08,1.38c-1.34,1.6-2.89,1.6-4.44,1.63l-7.82,0.01
				c-4.34,0.21-8.69,0.37-12.81,2c-1.73-0.21-3.37,0.48-5.08,0.47c-4.79,0.06-9.15,1.72-13.45,3.59c-0.27,0.08-0.43,0.37-0.35,0.64
				c0,0,0,0,0,0.01c-5.14,1.98-10.42,3.58-15.79,4.79c-2.02,0.42-4.03,0.87-6.05,1.31c-3.28-1.3-6.78-0.82-10.17-1.21
				c-0.71-0.08-1.55,0.27-2.07-0.54C-1391.45-1418.95-1391.63-1419.45-1391.18-1419.74"/>
			<path id="Caminho_230" fill="#FFFFFF" d="M-1394.4-1418.42c1.09,0.08,0.58,0.83,0.54,1.34c-0.19,1.27,0.22,2.56,1.11,3.49
				c-3.22,1.04-6.53,1.74-9.89,2.1c-4.37,0.59-8.76,1.08-13.14,1.61c-0.77-0.46-1.74-0.94-1.55-1.95c0.32-1.17,1.35-2.01,2.57-2.08
				c4.81-0.88,9.63-1.71,14.44-2.56l0.02,0.02c0.08,0.3,0.16,0.86,0.23,0.86c0.56-0.02,0.5-0.47,0.49-0.86l0.12-0.34l2.01-0.43
				c0.72,0.6,0.41-0.61,0.86-0.48l1.31-0.13C-1394.66-1417.56-1394.49-1417.93-1394.4-1418.42"/>
			<path id="Caminho_231" fill="#0A2D54" d="M-1357.52-1422.89c-0.09-0.27,0.07-0.56,0.34-0.65c0,0,0,0,0.01,0
				c4.3-1.87,8.66-3.54,13.45-3.59c-0.99,1.31-2.66,1.93-3.43,3.5c-1.14,1.93-1.18,4.32-0.1,6.28c0.47,0.58,0.73,1.3,0.75,2.05
				c-1.59,0-3.11-0.66-4.2-1.82c-1.2-1.22-2.32-2.54-3.5-3.78C-1355.05-1421.94-1356.22-1422.64-1357.52-1422.89"/>
			<path id="Caminho_232" fill="#0A2D54" d="M-1338.65-1427.6c4.12-1.63,8.47-1.8,12.81-2c-1.74,1.31-3.64,2.42-5.63,3.3
				c-0.48,0.25-1.19,0.41-1.39,0.81c-1.2,2.37-2.46,1.01-3.63,0.09C-1337.26-1426.09-1337.98-1426.82-1338.65-1427.6"/>
			<path id="Caminho_233" fill="#FFFFFF" d="M-1396.58-1417.7c-0.45-0.14-0.15,1.08-0.86,0.48c0.14-1.93-0.45-3.79-0.44-5.74
				C-1396.96-1421.36-1396.51-1419.54-1396.58-1417.7"/>
			<path id="Caminho_234" fill="#FFFFFF" d="M-1399.45-1416.79l-0.12,0.34h-0.72l-0.02-0.02c-0.24-1.66-0.49-3.32-0.79-5.41
				C-1399.59-1420.16-1399.58-1418.46-1399.45-1416.79"/>
			<path id="Caminho_235" fill="#FFFFFF" d="M-1391.99-1418.81c-0.55,0.14-1.35,0.94-1.31-0.49c0.11-1.35-0.04-2.71-0.45-4
				c1.83,1.11,1.02,2.77,1.7,3.86L-1391.99-1418.81"/>
			<path id="Caminho_236" fill="#FFFFFF" d="M-1394.4-1418.42c-0.09,0.49-0.26,0.86-0.87,0.59v-5.5
				C-1394.16-1421.51-1394.53-1419.92-1394.4-1418.42"/>
			<path id="Caminho_237" fill="#FFFFFF" d="M-1391.99-1418.81l-0.06-0.64c0-1.14,0-2.27,0-3.94c0.71,1.07,1.02,2.36,0.87,3.64
				c-0.45,0.29-0.27,0.8-0.42,1.19L-1391.99-1418.81"/>
			<path id="Caminho_238" fill="#FFFFFF" d="M-1400.3-1416.45h0.72c0,0.39,0.07,0.84-0.49,0.86
				C-1400.13-1415.59-1400.22-1416.15-1400.3-1416.45"/>
		</g>
	</g>
</g>
</svg>
