<?xml version="1.0" encoding="utf-8"?>
<!-- Generator: Adobe Illustrator 26.3.1, SVG Export Plug-In . SVG Version: 6.00 Build 0)  -->
<svg version="1.1" id="Camada_1" xmlns="http://www.w3.org/2000/svg" xmlns:xlink="http://www.w3.org/1999/xlink" x="0px" y="0px"
	 viewBox="0 0 190 140" enable-background="new 0 0 190 140" xml:space="preserve">
<g transform="matrix(1, 0, 0, 1, 0, 0)">
	<path id="Retângulo_2685-2" fill="#2E8CFF" d="M25,0h140c13.81,0,25,11.19,25,25v90c0,13.81-11.19,25-25,25H25
		c-13.81,0-25-11.19-25-25V25C0,11.19,11.19,0,25,0z"/>
</g>
<g id="Grupo_7421" transform="translate(1246 1512)">
	<g>
		<defs>
			<rect id="SVGID_1_" x="-1232" y="-1468" width="162" height="52"/>
		</defs>
		<clipPath id="SVGID_00000116936168928057099440000015512311607189450679_">
			<use xlink:href="#SVGID_1_"  overflow="visible"/>
		</clipPath>
		<g id="Grupo_7375" clip-path="url(#SVGID_00000116936168928057099440000015512311607189450679_)">
			<path id="Caminho_239" fill="#0A2D54" d="M-1109.65-1429.25c-0.33,0.58-0.68,1.14-0.99,1.73c-4.03,7.66-10.9,10.65-18.98,11.49
				c-2.01,0.33-3.9-1.02-4.23-3.03c-0.01-0.04-0.01-0.07-0.02-0.11c-0.34-0.88-0.04-1.87,0.74-2.41c0.68-0.5,1.25-1.15,1.93-1.66
				c2.86-2.15,3.21-4.93,2.06-8.1c-0.3-1.04-0.5-2.11-0.58-3.19c0-0.95-0.4-0.95-1.06-0.94c-3.61,0.09-7.22,0.22-10.83,0.24
				c-5.89,0.04-11.79,0.21-17.62-0.98c-1.33-1,0.6-1.41,0.31-2.61l-29,1.32c-5.28,0.03-10.55,0.25-15.99,0.67
				c0.88,1.1,2.51,1.06,2.64,2.56c-1.92,2.34-3.83,4.69-5.75,7.03c-2.23,2.57-5.03,4.58-8.18,5.87c-0.64,0.29-1.37,0.81-2.02,0.24
				c-0.64-0.55-0.06-1.26,0.12-1.85c0.42-1.32,1.03-2.58,1.79-3.75c3.34-4.85,3.37-11.26,0.08-16.15
				c-4.33-7.08-8.7-14.15-13.5-20.92c-0.71-1.06-1.59-2-2.58-2.79c-0.32-0.24-0.86-0.39-0.59-0.95c0.26-0.53,0.78-0.53,1.27-0.4
				c1.43,0.49,2.76,1.23,3.94,2.18c7.29,5.09,13.38,11.52,19.64,17.76c2.27,2.19,4.35,4.56,6.22,7.1c0.44,0.67,1.29,0.95,2.04,0.68
				c3.14-0.6,6.29-1.16,9.44-1.74c1.98-0.29,3.46-1.95,3.52-3.95c0.21-2.25,1.08-2.85,3.04-1.81c1.85,0.98,3.92,1.61,5.43,3.14
				c0.5,0.5,0.92,0.09,1.28,0.01c4.23-0.99,8.38-2.3,12.7-2.9c0.37-0.01,0.71-0.21,0.89-0.54c1.44-2.91,3.32-5.7,2.1-9.26
				c-0.47-1.37-0.89-3.05,0.4-4.09c1.41-1.15,2.9-0.09,4.17,0.67c3.48,2.07,6.9,4.25,10.36,6.35c2.91,1.77,6.32,2.53,9.7,2.14
				c6.07-0.6,12.18-0.82,18.28-0.65c1.32,0.04,2.64,0.23,3.96,0.36c-0.42,1.55-0.42,1.55,0.97,1.75c0.18-0.59-0.76-1.03-0.25-1.65
				l0.64,0.16c0.09,0.79,0.39,1.26,1.33,1.22c0.83-0.04,1.52-0.08,1.64-1.1c1.77,0.77,3.66,0.24,5.51,0.58
				c5.27,0.99,10.39,2.3,15.05,5.09c0.41,0.25,1.06,0.09,1.6,0.13c0.11,0.18,0.18,0.48,0.33,0.53c0.28,0.08,0.32-0.22,0.39-0.43
				l0.71,0.33c0.09,0.48-0.14,1.05,0.58,1.49l0.14-1.33l0.41,0.13l0.33,0.42c1.73-0.31,3.15,0.8,4.74,1.15
				c3.23,0.71,6.61,1.19,9.42,3.22v1.46l-1.1,1.03c-1.05,0.46-2.17,0.72-3.32,0.78c-1.93-0.1-3.85-0.35-5.74-0.75
				c-1.88-0.66-3.87-0.9-5.85-0.71c-0.99-0.08-1.95,0.3-2.63,1.02c-1.88,2.53-4.52,2.64-7.31,2.63c-2.71-0.18-5.43-0.06-8.11,0.35
				c-3.4,0.1-3.4,0.1-4.62,3.25C-1109-1430.94-1109.32-1430.09-1109.65-1429.25 M-1124.04-1429.16l-0.06-0.3l-0.15,0.08
				L-1124.04-1429.16 M-1095.03-1446.67h0.74c0,0.37,0,0.73,0,1.1c-1,0.14-0.99,1.01-0.95,1.64c0.04,0.7,1.01,0.71,1.37,1.29
				c0.16,0.26,0.44,0.04,0.55-0.18c0.08-0.22,0.14-0.45,0.18-0.68c-1.24-0.21-0.59-1.49-1.15-2.08l2-0.76
				c0.32,0.52-0.37,1.57,0.62,1.54c0.69-0.02,1.23-0.61,1.21-1.3c0,0,0,0,0,0c-0.13-0.95-0.91-0.6-1.56-0.61
				c-0.76-0.01-1.51,0.43-2.27,0.05c-0.01-0.24,0.64-0.47,0.09-0.68c-0.5-0.19-0.77,0.16-0.8,0.68c-0.19-0.02-0.42-0.25-0.56,0.06
				c-0.03,0.06,0.06,0.23,0.14,0.27C-1095.11-1446.18-1095.1-1446.48-1095.03-1446.67 M-1118.61-1426.98
				c-0.64-0.17-1.21-0.23-1.08,0.74c-0.53,0.67-0.51,1.63,0.04,2.28c0.34,0.49,1.23,0.43,2.43-0.23c-2.33,0.39-1.88-1.27-2.47-2.06
				c0.54,0.02,0.99-0.08,1.1-0.72c0.31-0.05,0.71,0.09,0.81-0.38c0.01-0.06-0.11-0.2-0.19-0.22
				C-1118.45-1427.67-1118.53-1427.32-1118.61-1426.98 M-1111.26-1441.46c0.66-0.56,1.2-1.24,1.61-2c0.01-0.02-0.32-0.26-0.41-0.22
				c-0.84,0.37-1.08,1.2-1.45,1.94c-0.12,0.13-0.49,0.17-0.3,0.42C-1111.67-1441.13-1111.41-1441.28-1111.26-1441.46
				 M-1150.52-1448.48c0.95-1.33,0.88-1.71-0.51-2.75c-0.4,0.55,0.25,0.85,0.31,1.28c0.06,0.47,0.11,0.95,0.16,1.42l-0.06,0.17
				L-1150.52-1448.48 M-1116.12-1425.89l-0.42,0.14c-0.36-0.04-0.85-0.08-0.82,0.4c0.04,0.61,0.68,0.28,1.03,0.44
				c0.39,0.18,0.88,0.3,0.93-0.37c0.03-0.37,0.43-0.86-0.17-1.1C-1115.97-1426.54-1116.07-1426.21-1116.12-1425.89
				 M-1112.01-1433.07c0.67,0.72,1.58,1.08,2.26,0.36c0.74-0.78-0.13-1.47-0.64-2.08c-0.08-0.08-0.17-0.16-0.26-0.23
				c-0.68-0.45-0.9-0.13-0.89,0.55l-0.19,0.59c-1.21-0.09-0.36-0.96-0.54-1.44c-0.16-0.43-0.16-0.99-0.68-1.19
				c-0.16-0.02-0.33,0.03-0.44,0.15c-0.61,1.1-0.22,2.48,0.87,3.09C-1112.36-1433.19-1112.19-1433.12-1112.01-1433.07
				 M-1120.44-1434.3c0.63,0.66,1.35,1.21,2.14,1.65c0.43,0.18,0.82,0.67,1.14-0.07c0.31-0.42,0.33-0.98,0.07-1.43
				c-0.78-1.39-1.74-0.22-2.57-0.43c-0.35-0.26-0.53-1-1.09-0.62C-1121.08-1434.95-1120.55-1434.6-1120.44-1434.3 M-1100.11-1446.67
				L-1100.11-1446.67c0.78,1.26,1.31,0.6,1.57-0.31c0.03-0.4,0.15-0.79,0.35-1.14c0.21-0.26,0.54-0.61,0.14-0.92
				c-0.31-0.28-0.79-0.26-1.08,0.05c-0.02,0.02-0.03,0.04-0.05,0.06c-0.35,0.56-0.71,0.76-1.3,0.43l-0.02-0.02
				c-0.15-0.44,0.18-0.95-0.35-1.5c-0.6,1.65-1.27,0.01-2.11,0.1c0.69,0.66,1.06,1.58,1.01,2.54c-0.69-0.1-0.99,0.25-1.01,0.9
				c-0.01,0.4,0.24,0.84,0.58,0.72c0.48-0.17,1.4,0.69,1.44-0.55L-1100.11-1446.67 M-1089.04-1443.73c0.22,2.8-1.09-0.03-1.45,0.66
				c1,2.66,1.93,3.2,4.21,2.29c0.53-0.26,0.95-0.71,1.18-1.26c0.2-0.49-1,0.12-0.81-0.69c0.76-0.58,1.46-0.01,2.2,0.15
				c0.12-0.55,0.08-1.24-0.43-1.2c-0.94,0.07-1.96-0.4-2.8,0.17c-0.92,0.62,0.27,1.26,0.16,1.89
				C-1089.14-1440.41-1087.99-1443.03-1089.04-1443.73 M-1146.7-1444.78v7.47C-1145.71-1439.79-1146.86-1442.29-1146.7-1444.78
				 M-1149.52-1444.12c-0.67,0.1-1.14,0.73-1.03,1.41c0,0.01,0,0.03,0.01,0.04c0.06,0.67,0.44,1.17,1.15,1.12
				c0.82-0.06,1.08-0.68,1.02-1.41c0.01-0.63-0.5-1.15-1.14-1.16C-1149.51-1444.12-1149.51-1444.12-1149.52-1444.12
				 M-1125.32-1428.41c-0.33,1.14-1.45,2.22-0.5,3.24c0.65,0.7,1.35-0.51,2.3-0.6C-1124.43-1426.61-1125.75-1426.88-1125.32-1428.41
				 M-1149.47-1439.44c-0.61,0.01-1.09,0.52-1.08,1.13c0,0.03,0,0.05,0,0.07c0.01,0.76,0.43,1.31,1.21,1.24
				c0.6-0.06,1.05-0.6,0.98-1.2c0-0.03-0.01-0.06-0.01-0.1c0.04-0.6-0.41-1.11-1.01-1.15
				C-1149.41-1439.44-1149.44-1439.44-1149.47-1439.44 M-1139.12-1439.48c0.52-0.1,0.89-0.57,0.88-1.1
				c0.01-0.57-0.16-1.14-0.78-1.22c-0.67-0.09-0.89,0.47-0.94,1.04C-1140.06-1440.18-1139.7-1439.62-1139.12-1439.48
				 M-1171.4-1439.8c0.13-1.62,0.26-3.25,0.39-4.87C-1171.88-1443.2-1172.02-1441.4-1171.4-1439.8 M-1157.49-1452.49
				c-0.14-0.53,0.03-1.38-0.8-1.37c-0.69,0.01-0.65,0.77-0.65,1.3c0,0.58-0.1,1.39,0.73,1.39
				C-1157.55-1451.17-1157.57-1451.93-1157.49-1452.49 M-1073.79-1441.24c-0.96-0.44-1.33-1.5-2.25-0.92
				c-0.43,0.35-0.5,0.97-0.15,1.41c0.02,0.02,0.04,0.04,0.05,0.06C-1075.13-1439.65-1074.8-1441-1073.79-1441.24 M-1144.03-1442.43
				c0.55-0.11,0.92-0.65,0.81-1.2c-0.03-0.61-0.3-1.08-0.97-1c-0.53,0.05-0.92,0.53-0.87,1.06c0,0.03,0.01,0.06,0.01,0.1
				C-1145.04-1442.91-1144.59-1442.45-1144.03-1442.43 M-1133.74-1437.68c0.44,0.02,0.82-0.32,0.84-0.76c0-0.01,0-0.02,0-0.03
				c0.07-0.59-0.07-1.16-0.76-1.21c-0.5-0.04-0.7,0.44-0.74,0.88C-1134.53-1438.3-1134.23-1437.8-1133.74-1437.68 M-1154.53-1438.68
				c-0.5,0.02-0.93,0.22-0.96,0.81c-0.04,0.46,0.3,0.86,0.76,0.89c0.05,0,0.1,0,0.16,0c0.45,0.05,0.85-0.27,0.9-0.72c0,0,0,0,0,0
				C-1153.58-1438.29-1153.94-1438.57-1154.53-1438.68 M-1167.06-1445c0.36,1.62-0.96,3.15-0.24,5.16
				C-1166.56-1441.74-1167.09-1443.39-1167.06-1445 M-1123.65-1440.99c-0.49,0.12-0.79,0.6-0.68,1.09c0.05,0.51,0.27,0.99,0.9,0.86
				c0.6-0.12,0.63-0.66,0.59-1.15c0.02-0.42-0.31-0.79-0.73-0.81C-1123.6-1440.99-1123.62-1440.99-1123.65-1440.99 M-1145.04-1439.7
				c0.04,0.54,0.29,0.95,0.85,0.98c0.5,0.03,0.75-0.39,0.79-0.82c0.11-0.48-0.18-0.95-0.66-1.06c-0.02-0.01-0.05-0.01-0.07-0.01
				C-1144.72-1440.68-1144.92-1440.19-1145.04-1439.7 M-1138.33-1438.92c-0.49,0.08-0.82,0.53-0.75,1.02c0,0.01,0,0.01,0,0.02
				c0.05,0.52,0.31,0.93,0.9,0.87c0.57-0.06,0.77-0.5,0.73-1.03c0.03-0.46-0.31-0.85-0.77-0.88
				C-1138.25-1438.92-1138.29-1438.92-1138.33-1438.92 M-1164.52-1439.93c0.45,0.01,0.82-0.34,0.83-0.79
				c0.1-0.46-0.18-0.91-0.64-1.01c-0.04-0.01-0.08-0.02-0.12-0.02c-0.48-0.05-0.76,0.35-0.82,0.79c-0.09,0.47,0.21,0.93,0.68,1.02
				C-1164.56-1439.94-1164.54-1439.93-1164.52-1439.93 M-1150.6-1454.32c-0.12-0.48-0.59-0.77-1.07-0.66
				c-0.45,0.05-0.79,0.32-0.74,0.82c0.07,0.61,0.52,0.74,1.04,0.67c0.43,0,0.78-0.36,0.77-0.79
				C-1150.6-1454.29-1150.6-1454.31-1150.6-1454.32 M-1127.94-1439.27c-0.05-0.52-0.18-0.99-0.8-0.97
				c-0.43,0.02-0.76,0.38-0.74,0.81c0,0.01,0,0.02,0,0.04c-0.02,0.52,0.15,0.99,0.72,1.04
				C-1128.14-1438.29-1128-1438.78-1127.94-1439.27 M-1144.06-1437.91c-0.59,0.15-0.71,0.58-0.64,1.1c0.06,0.47,0.31,0.82,0.81,0.75
				c0.6-0.09,0.71-0.58,0.65-1.09c0.01-0.41-0.31-0.75-0.73-0.76C-1144-1437.92-1144.03-1437.92-1144.06-1437.91 M-1148.39-1446.19
				c-0.18-0.44-0.65-0.68-1.11-0.57c-0.46,0.05-0.82,0.27-0.71,0.8c0.1,0.5,0.54,0.59,0.97,0.56S-1148.43-1445.58-1148.39-1446.19
				 M-1078.21-1441.05c0.31-0.45,1.29-0.07,1.27-0.98c-0.02-0.57-0.53-0.56-0.91-0.68c-0.1,0.62-0.81,0.77-1,1.25
				C-1078.96-1441.19-1078.58-1440.99-1078.21-1441.05 M-1155.03-1457.75c-0.61,1.09-0.78,1.86-0.02,2.74
				C-1154.31-1455.81-1154.43-1456.56-1155.03-1457.75 M-1119.82-1442.23c-0.06-0.43-0.46-0.73-0.89-0.67c0,0,0,0-0.01,0
				c-0.45,0.05-0.81,0.3-0.74,0.81c0.08,0.37,0.43,0.62,0.8,0.56C-1120.2-1441.53-1119.86-1441.7-1119.82-1442.23 M-1107.98-1441.95
				c0.39-0.05,0.79-0.19,0.75-0.74c-0.02-0.37-0.33-0.65-0.7-0.63c-0.01,0-0.02,0-0.03,0c-0.46,0-0.84,0.2-0.81,0.74
				C-1108.76-1442.16-1108.44-1441.99-1107.98-1441.95 M-1108.6-1439.78c-0.03-0.51-0.36-0.71-0.81-0.72
				c-0.37-0.06-0.72,0.17-0.81,0.53c-0.1,0.52,0.27,0.76,0.7,0.83c0.42,0.09,0.83-0.19,0.92-0.61
				C-1108.61-1439.76-1108.61-1439.77-1108.6-1439.78 M-1123.55-1444.56c-0.11-0.42-0.55-0.67-0.97-0.56c-0.01,0-0.02,0-0.02,0.01
				c-0.37,0.08-0.68,0.34-0.54,0.77c0.12,0.36,0.49,0.57,0.86,0.47C-1123.84-1443.94-1123.55-1444.12-1123.55-1444.56
				 M-1133.17-1444.9c-0.04-0.43-0.35-0.57-0.73-0.6c-0.37-0.08-0.74,0.14-0.86,0.5c-0.09,0.54,0.36,0.71,0.8,0.71
				C-1133.57-1444.24-1133.22-1444.51-1133.17-1444.9C-1133.17-1444.9-1133.17-1444.9-1133.17-1444.9 M-1155.44-1441.17
				c0.43-0.05,0.9-0.13,0.84-0.68c-0.06-0.55-0.57-0.53-0.99-0.52c-0.41,0.01-0.92,0.07-0.84,0.65
				C-1156.36-1441.2-1155.87-1441.18-1155.44-1441.17 M-1118.11-1448.24c0.34-2.1,0.28-2.38-0.85-3.67
				C-1118.77-1450.53-1118.16-1449.46-1118.11-1448.24 M-1116.58-1435.18c0.9,0.43,1.51-0.19,2.14-0.67
				c0.07-0.14,0.06-0.31-0.03-0.45c-0.78-0.66-0.8,0.72-1.44,0.56C-1116.18-1435.81-1116.54-1435.75-1116.58-1435.18
				 M-1133.58-1441.32c0.35-0.09,0.72-0.23,0.69-0.67c-0.04-0.52-0.45-0.67-0.91-0.6c-0.39,0.06-0.7,0.29-0.61,0.72
				C-1134.32-1441.49-1133.95-1441.25-1133.58-1441.32 M-1127.99-1422.08c-0.19,0.98,0.43,1.94,1.4,2.17
				C-1127.09-1420.9-1127.24-1421.65-1127.99-1422.08 M-1114.09-1447.65c-0.1,0.84-0.69,1.64-0.32,2.84
				C-1113.84-1445.65-1113.72-1446.71-1114.09-1447.65 M-1112.63-1431.29c-0.27-0.59-0.57-1.16-1.31-1.13
				c-0.1,0-0.27,0.29-0.26,0.42C-1114.1-1431.02-1113.18-1431.54-1112.63-1431.29 M-1123.55-1427.51c-0.07-0.24-0.22-0.41-0.48-0.39
				c-0.29,0.03-0.36,0.27-0.26,0.5c0.07,0.15,0.2,0.26,0.36,0.3C-1123.67-1427.07-1123.54-1427.24-1123.55-1427.51
				 M-1119.52-1435.53c0.11-0.27,0.19-0.55,0.24-0.83c-0.02-0.15-0.11-0.28-0.25-0.35c-0.17-0.04-0.35,0.06-0.39,0.23
				c-0.02,0.06-0.01,0.12,0.01,0.18C-1119.81-1436.03-1119.67-1435.77-1119.52-1435.53 M-1115.41-1437.23
				c-0.08-0.04-0.22-0.19-0.34-0.17c-0.11,0.02-0.19,0.22-0.28,0.34c0.13,0.08,0.25,0.23,0.38,0.24
				C-1115.5-1436.81-1115.31-1436.9-1115.41-1437.23 M-1116.81-1436.55l0.14-0.08c-0.04-0.03-0.08-0.09-0.12-0.09
				s-0.09,0.04-0.14,0.07L-1116.81-1436.55 M-1097.09-1448.83l0.1,0.01l-0.04-0.11L-1097.09-1448.83z M-1116.77-1426.73l0.01-0.12
				l-0.13,0.05L-1116.77-1426.73z M-1114.82-1444.26l0.06-0.08l-0.08-0.02L-1114.82-1444.26z"/>
			<path id="Caminho_240" fill="#FFFFFF" d="M-1201.29-1434.26c-0.13-1.51-1.76-1.46-2.64-2.56c5.44-0.43,10.71-0.65,15.99-0.67
				c0.34,0.67,0.98,0.6,1.58,0.62c3.31,0.13,6.64,0.06,9.92,0.45c3.6,0.43,7.21,0.13,10.81,0.54c2.08,0.24,4.3,0.56,6.39-0.31
				c5.82,1.19,11.73,1.02,17.62,0.98c3.61-0.02,7.22-0.15,10.83-0.24c0.66-0.02,1.06-0.01,1.06,0.94c0.09,1.08,0.29,2.15,0.58,3.19
				c-6.9,0.13-13.76,1.11-20.68,1.09c-0.36,0-0.72-0.01-1.08-0.02c-4.56-0.5-8.91-2.64-13.65-1.78l-16.12-0.07
				c-2.94-1.05-6.05-1.3-9.09-1.82C-1193.6-1434.42-1197.42-1435.17-1201.29-1434.26"/>
			<path id="Caminho_241" fill="#FFFFFF" d="M-1080.16-1438.32c1.89,0.4,3.81,0.65,5.74,0.75c1.14-0.06,2.27-0.32,3.32-0.78
				c-0.11,1.84-1.48,2.81-2.84,3.45c-9.2,4.29-18.63,7.61-29.06,6.17c-2.2-0.3-4.43-0.36-6.65-0.53c0.32-0.85,0.64-1.69,0.97-2.54
				c1.22-3.15,1.22-3.15,4.62-3.25c0.19,0.7,0.77,0.68,1.31,0.68c4.34,0.02,8.67,0.03,13.01,0.03c0.62,0,1.26-0.03,1.45-0.78
				c0.49-1.98,2.07-2.22,3.72-2.55C-1083.11-1437.95-1081.56-1437.67-1080.16-1438.32"/>
			<path id="Caminho_242" fill="#0E3B96" d="M-1164.56-1432.04c4.74-0.87,9.09,1.28,13.65,1.78c-2.43,0.83-4.84,1.76-7.32,2.46
				c-1.29,0.37-2.96,0.97-3.08-1.53c-0.03-0.71-0.95-1.03-1.53-1.45C-1163.41-1431.2-1164.15-1431.39-1164.56-1432.04"/>
			<path id="Caminho_243" fill="#0E3B96" d="M-1189.78-1433.92c3.05,0.52,6.15,0.77,9.09,1.82c-1.39,1.44-3.14,2.48-5.07,3
				c-1.06,0.21-2.05-0.11-2.03-1.17C-1187.76-1431.97-1188.72-1432.92-1189.78-1433.92"/>
			<path id="Caminho_244" fill="#0E3B96" d="M-1109.18-1452.13c-0.12,1.02-0.81,1.07-1.64,1.1c-0.94,0.04-1.24-0.43-1.33-1.22
				C-1111.17-1452.48-1110.14-1452.44-1109.18-1452.13"/>
			<path id="Caminho_245" fill="#0E3B96" d="M-1112.8-1452.41c-0.51,0.63,0.43,1.06,0.25,1.65c-1.39-0.2-1.39-0.2-0.97-1.75
				L-1112.8-1452.41"/>
			<path id="Caminho_246" fill="#0E3B96" d="M-1084.89-1445.75l-0.14,1.33c-0.71-0.44-0.49-1.01-0.58-1.49L-1084.89-1445.75"/>
			<path id="Caminho_247" fill="#0E3B96" d="M-1086.31-1446.24c-0.07,0.21-0.11,0.52-0.39,0.43c-0.15-0.04-0.22-0.34-0.33-0.53
				L-1086.31-1446.24"/>
			<path id="Caminho_248" fill="#0E3B96" d="M-1084.16-1445.2l-0.33-0.42c0.2,0.02,0.35,0.2,0.33,0.4
				C-1084.15-1445.22-1084.16-1445.21-1084.16-1445.2"/>
			<path id="Caminho_249" fill="#0E3B96" d="M-1159.24-1436.2c-2.09,0.87-4.3,0.55-6.39,0.31c-3.6-0.42-7.21-0.11-10.81-0.54
				c-3.28-0.39-6.61-0.31-9.91-0.45c-0.6-0.02-1.24,0.05-1.58-0.62l29-1.32C-1158.64-1437.61-1160.57-1437.2-1159.24-1436.2"/>
			<path id="Caminho_250" fill="#0E3B96" d="M-1080.16-1438.31c-1.4,0.65-2.94,0.37-4.41,0.66c-1.65,0.33-3.23,0.57-3.72,2.55
				c-0.19,0.76-0.83,0.79-1.45,0.78c-4.34-0.01-8.67-0.02-13.01-0.03c-0.54,0-1.12,0.02-1.31-0.68c2.68-0.42,5.4-0.54,8.11-0.35
				c2.79,0.01,5.42-0.09,7.31-2.63c0.68-0.72,1.64-1.1,2.63-1.02C-1084.03-1439.22-1082.04-1438.97-1080.16-1438.31"/>
			<path id="Caminho_251" fill="#0E3B96" d="M-1089.03-1443.73c1.05,0.7-0.1,3.32,2.26,2c0.11-0.63-1.08-1.26-0.16-1.89
				c0.84-0.57,1.86-0.1,2.8-0.17c0.5-0.04,0.55,0.65,0.43,1.2c-0.73-0.16-1.43-0.72-2.2-0.15c-0.2,0.81,1.01,0.21,0.81,0.69
				c-0.23,0.55-0.64,1-1.18,1.26c-2.28,0.91-3.21,0.37-4.21-2.29C-1090.12-1443.76-1088.81-1440.93-1089.03-1443.73"/>
			<path id="Caminho_252" fill="#0E3B96" d="M-1100.47-1448.48c0.59,0.33,0.95,0.13,1.3-0.43c0.25-0.34,0.73-0.41,1.06-0.16
				c0.02,0.02,0.04,0.03,0.06,0.05c0.4,0.31,0.07,0.66-0.14,0.92c-0.19,0.35-0.31,0.74-0.35,1.14c-0.27,0.91-0.79,1.57-1.58,0.31
				c0.22-0.06,0.5-0.05,0.5-0.39c-0.02-0.06-0.06-0.1-0.12-0.11c-0.33,0-0.34,0.27-0.38,0.5l-0.8,0.38
				c-0.75,0.04-1.47,0.05-1.02-1.06c0.04-0.95-0.33-1.88-1.01-2.54c0.84-0.09,1.51,1.55,2.11-0.1c0.53,0.54,0.2,1.06,0.35,1.5
				l-0.06,0.11L-1100.47-1448.48"/>
			<path id="Caminho_253" fill="#0E3B96" d="M-1119.66-1434.56c0.83,0.21,1.8-0.96,2.58,0.43c0.26,0.45,0.24,1.01-0.07,1.43
				c-0.32,0.74-0.71,0.25-1.14,0.07c-0.79-0.44-1.52-1-2.14-1.65L-1119.66-1434.56"/>
			<path id="Caminho_254" fill="#0E3B96" d="M-1146.7-1444.78c-0.16,2.49,0.99,4.99,0,7.47V-1444.78z"/>
			<path id="Caminho_255" fill="#0E3B96" d="M-1149.52-1444.12c0.63,0,1.15,0.51,1.15,1.15c0,0,0,0.01,0,0.01
				c0.06,0.73-0.2,1.36-1.02,1.41c-0.71,0.05-1.09-0.45-1.15-1.12c-0.12-0.67,0.32-1.32,0.99-1.44
				C-1149.54-1444.12-1149.53-1444.12-1149.52-1444.12"/>
			<path id="Caminho_256" fill="#0E3B96" d="M-1094.31-1446.66c0.76,0.38,1.51-0.05,2.27-0.05c0.64,0.01,1.42-0.34,1.56,0.61
				c0.03,0.69-0.51,1.27-1.21,1.3c0,0,0,0,0,0c-0.99,0.03-0.29-1.02-0.62-1.54l-2,0.76l0.01,0.01v-1.1L-1094.31-1446.66z"/>
			<path id="Caminho_257" fill="#0E3B96" d="M-1125.31-1428.42c-0.43,1.54,0.89,1.8,1.81,2.64c-0.96,0.09-1.65,1.29-2.3,0.6
				C-1126.76-1426.19-1125.63-1427.27-1125.31-1428.42"/>
			<path id="Caminho_258" fill="#0E3B96" d="M-1110.64-1435.03c0.09,0.07,0.18,0.15,0.26,0.23c0.5,0.62,1.38,1.3,0.64,2.08
				c-0.68,0.72-1.6,0.36-2.26-0.36c0.1-0.27,0.19-0.55,0.29-0.82c0.06-0.2,0.13-0.39,0.19-0.59
				C-1111.23-1434.67-1110.93-1434.85-1110.64-1435.03"/>
			<path id="Caminho_259" fill="#0E3B96" d="M-1149.47-1439.44c0.6-0.02,1.09,0.46,1.11,1.05c0,0.03,0,0.07,0,0.1
				c0.11,0.6-0.28,1.17-0.88,1.29c-0.03,0.01-0.06,0.01-0.1,0.01c-0.78,0.07-1.2-0.48-1.21-1.24c-0.06-0.61,0.39-1.15,1-1.2
				C-1149.52-1439.43-1149.5-1439.43-1149.47-1439.44"/>
			<path id="Caminho_260" fill="#0E3B96" d="M-1111.72-1433.89c-0.1,0.27-0.19,0.55-0.29,0.82c-1.21-0.33-1.92-1.58-1.59-2.79
				c0.05-0.18,0.12-0.35,0.21-0.51c0.11-0.12,0.28-0.18,0.44-0.15c0.52,0.21,0.52,0.76,0.68,1.19
				C-1112.08-1434.85-1112.93-1433.99-1111.72-1433.89"/>
			<path id="Caminho_261" fill="#0E3B96" d="M-1139.12-1439.47c-0.57-0.14-0.94-0.7-0.85-1.28c0.05-0.57,0.27-1.13,0.94-1.04
				c0.62,0.08,0.8,0.65,0.78,1.22C-1138.23-1440.04-1138.6-1439.57-1139.12-1439.47"/>
			<path id="Caminho_262" fill="#0E3B96" d="M-1171.39-1439.8c-0.63-1.6-0.49-3.4,0.39-4.87
				C-1171.14-1443.05-1171.27-1441.43-1171.39-1439.8"/>
			<path id="Caminho_263" fill="#0E3B96" d="M-1094.31-1445.58c0.57,0.59-0.09,1.87,1.15,2.08c-0.03,0.23-0.09,0.46-0.18,0.68
				c-0.11,0.22-0.38,0.44-0.55,0.18c-0.36-0.58-1.33-0.59-1.37-1.29c-0.04-0.64-0.05-1.5,0.95-1.64L-1094.31-1445.58"/>
			<path id="Caminho_264" fill="#0E3B96" d="M-1157.49-1452.49c-0.09,0.56-0.07,1.31-0.72,1.32c-0.82,0.01-0.73-0.81-0.73-1.39
				c0-0.53-0.04-1.29,0.65-1.3C-1157.46-1453.87-1157.63-1453.02-1157.49-1452.49"/>
			<path id="Caminho_265" fill="#0E3B96" d="M-1073.79-1441.24c-1.01,0.24-1.34,1.6-2.34,0.55c-0.38-0.4-0.36-1.03,0.04-1.41
				c0.02-0.02,0.04-0.04,0.06-0.05C-1075.12-1442.75-1074.74-1441.69-1073.79-1441.24"/>
			<path id="Caminho_266" fill="#0E3B96" d="M-1144.03-1442.43c-0.56-0.02-1.01-0.48-1.02-1.05c-0.11-0.53,0.23-1.04,0.76-1.14
				c0.03-0.01,0.06-0.01,0.1-0.01c0.67-0.09,0.94,0.39,0.97,1C-1143.11-1443.08-1143.48-1442.54-1144.03-1442.43"/>
			<path id="Caminho_267" fill="#0E3B96" d="M-1133.74-1437.68c-0.49-0.13-0.79-0.62-0.67-1.12c0.04-0.44,0.25-0.91,0.74-0.88
				c0.69,0.05,0.83,0.62,0.76,1.21c-0.01,0.44-0.37,0.79-0.81,0.79C-1133.72-1437.68-1133.73-1437.68-1133.74-1437.68"/>
			<path id="Caminho_268" fill="#0E3B96" d="M-1154.53-1438.67c0.59,0.11,0.94,0.39,0.86,0.98c-0.05,0.45-0.45,0.77-0.9,0.72
				c0,0,0,0,0,0c-0.46,0.05-0.87-0.28-0.91-0.74c-0.01-0.05-0.01-0.1,0-0.16C-1155.46-1438.45-1155.03-1438.66-1154.53-1438.67"/>
			<path id="Caminho_269" fill="#0E3B96" d="M-1167.06-1445c-0.04,1.6,0.5,3.26-0.24,5.16
				C-1168.02-1441.85-1166.69-1443.38-1167.06-1445"/>
			<path id="Caminho_270" fill="#0E3B96" d="M-1123.65-1440.99c0.42-0.02,0.79,0.31,0.81,0.73c0,0.02,0,0.05,0,0.07
				c0.04,0.49,0.01,1.03-0.59,1.15c-0.63,0.13-0.85-0.35-0.9-0.86C-1124.44-1440.38-1124.14-1440.87-1123.65-1440.99"/>
			<path id="Caminho_271" fill="#0E3B96" d="M-1145.04-1439.7c0.12-0.49,0.32-0.98,0.91-0.91c0.48,0.07,0.81,0.52,0.74,1.01
				c0,0.02-0.01,0.05-0.01,0.07c-0.04,0.44-0.29,0.85-0.79,0.82C-1144.75-1438.75-1144.99-1439.16-1145.04-1439.7"/>
			<path id="Caminho_272" fill="#0E3B96" d="M-1138.33-1438.92c0.45-0.04,0.85,0.3,0.89,0.76c0,0.04,0,0.08,0,0.12
				c0.04,0.53-0.17,0.97-0.73,1.03c-0.58,0.06-0.85-0.35-0.9-0.87c-0.09-0.48,0.24-0.95,0.72-1.03
				C-1138.35-1438.92-1138.34-1438.92-1138.33-1438.92"/>
			<path id="Caminho_273" fill="#0E3B96" d="M-1164.52-1439.93c-0.47-0.06-0.81-0.49-0.76-0.96c0-0.02,0.01-0.04,0.01-0.07
				c0.06-0.44,0.34-0.83,0.82-0.79c0.47,0.04,0.81,0.44,0.78,0.91c0,0.04-0.01,0.08-0.02,0.12
				C-1163.7-1440.27-1164.07-1439.92-1164.52-1439.93"/>
			<path id="Caminho_274" fill="#0E3B96" d="M-1150.6-1454.32c0.03,0.43-0.3,0.8-0.73,0.83c-0.01,0-0.03,0-0.04,0
				c-0.52,0.07-0.97-0.07-1.04-0.67c-0.05-0.5,0.28-0.76,0.74-0.82C-1151.19-1455.09-1150.71-1454.8-1150.6-1454.32"/>
			<path id="Caminho_275" fill="#0E3B96" d="M-1127.94-1439.27c-0.06,0.49-0.19,0.98-0.81,0.92c-0.57-0.05-0.75-0.53-0.72-1.04
				c-0.04-0.43,0.28-0.81,0.7-0.84c0.01,0,0.02,0,0.03,0C-1128.12-1440.27-1127.98-1439.8-1127.94-1439.27"/>
			<path id="Caminho_276" fill="#0E3B96" d="M-1144.06-1437.91c0.41-0.04,0.77,0.26,0.81,0.67c0,0.03,0,0.06,0,0.09
				c0.06,0.51-0.05,1-0.65,1.09c-0.51,0.08-0.76-0.28-0.81-0.75C-1144.77-1437.33-1144.65-1437.76-1144.06-1437.91"/>
			<path id="Caminho_277" fill="#0E3B96" d="M-1148.38-1446.18c-0.04,0.6-0.42,0.75-0.85,0.78c-0.44,0.03-0.87-0.05-0.97-0.56
				c-0.11-0.53,0.25-0.75,0.71-0.8C-1149.03-1446.87-1148.56-1446.62-1148.38-1446.18"/>
			<path id="Caminho_278" fill="#0E3B96" d="M-1116.11-1425.89c0.05-0.31,0.15-0.65,0.55-0.48c0.6,0.24,0.2,0.73,0.17,1.1
				c-0.05,0.66-0.54,0.55-0.93,0.37c-0.35-0.16-0.99,0.17-1.03-0.44c-0.03-0.48,0.46-0.44,0.82-0.4
				C-1116.32-1425.59-1116.11-1425.41-1116.11-1425.89"/>
			<path id="Caminho_279" fill="#0E3B96" d="M-1078.21-1441.05c-0.37,0.06-0.76-0.14-0.65-0.4c0.2-0.48,0.91-0.63,1-1.25
				c0.38,0.12,0.9,0.11,0.91,0.68C-1076.92-1441.12-1077.9-1441.5-1078.21-1441.05"/>
			<path id="Caminho_280" fill="#0E3B96" d="M-1155.03-1457.75c0.6,1.19,0.72,1.94-0.02,2.74
				C-1155.81-1455.89-1155.64-1456.65-1155.03-1457.75"/>
			<path id="Caminho_281" fill="#0E3B96" d="M-1119.7-1426.25c0.59,0.78,0.15,2.45,2.47,2.06c-1.2,0.66-2.09,0.72-2.43,0.23
				C-1120.21-1424.62-1120.22-1425.57-1119.7-1426.25L-1119.7-1426.25"/>
			<path id="Caminho_282" fill="#0E3B96" d="M-1119.83-1442.22c-0.04,0.53-0.39,0.7-0.84,0.71c-0.37,0.06-0.72-0.19-0.8-0.56
				c-0.08-0.51,0.28-0.77,0.74-0.82C-1120.3-1442.96-1119.9-1442.66-1119.83-1442.22
				C-1119.83-1442.23-1119.83-1442.23-1119.83-1442.22"/>
			<path id="Caminho_283" fill="#0E3B96" d="M-1107.99-1441.95c-0.47-0.03-0.78-0.21-0.8-0.64c-0.03-0.54,0.35-0.74,0.81-0.74
				c0.37-0.04,0.7,0.23,0.73,0.6c0,0.01,0,0.02,0,0.03C-1107.2-1442.14-1107.6-1442-1107.99-1441.95"/>
			<path id="Caminho_284" fill="#0E3B96" d="M-1101.93-1447.35c-0.45,1.12,0.27,1.11,1.02,1.06c-0.05,1.24-0.97,0.38-1.45,0.55
				c-0.34,0.12-0.59-0.32-0.58-0.72C-1102.92-1447.1-1102.61-1447.46-1101.93-1447.35"/>
			<path id="Caminho_285" fill="#0E3B96" d="M-1150.56-1448.52c-0.05-0.47-0.1-0.95-0.16-1.42c-0.06-0.43-0.7-0.73-0.31-1.28
				c1.4,1.04,1.46,1.42,0.51,2.75L-1150.56-1448.52z"/>
			<path id="Caminho_286" fill="#0E3B96" d="M-1108.61-1439.78c-0.07,0.42-0.47,0.71-0.89,0.64c-0.01,0-0.02,0-0.03-0.01
				c-0.44-0.07-0.8-0.31-0.7-0.83c0.09-0.36,0.44-0.6,0.81-0.53C-1108.96-1440.49-1108.63-1440.29-1108.61-1439.78"/>
			<path id="Caminho_287" fill="#0E3B96" d="M-1123.55-1444.56c0,0.44-0.29,0.62-0.67,0.69c-0.37,0.1-0.74-0.11-0.86-0.47
				c-0.14-0.43,0.17-0.69,0.54-0.77c0.42-0.13,0.86,0.11,0.99,0.53C-1123.56-1444.58-1123.55-1444.57-1123.55-1444.56"/>
			<path id="Caminho_288" fill="#0E3B96" d="M-1133.17-1444.9c-0.05,0.38-0.4,0.66-0.78,0.61c0,0,0,0,0,0c-0.45,0-0.9-0.17-0.8-0.71
				c0.12-0.36,0.48-0.58,0.86-0.5C-1133.51-1445.48-1133.2-1445.34-1133.17-1444.9"/>
			<path id="Caminho_289" fill="#0E3B96" d="M-1155.44-1441.17c-0.43-0.01-0.92-0.03-0.99-0.55c-0.08-0.58,0.42-0.64,0.84-0.65
				s0.92-0.02,0.99,0.52C-1154.54-1441.31-1155.02-1441.22-1155.44-1441.17"/>
			<path id="Caminho_290" fill="#0E3B96" d="M-1118.11-1448.24c-0.05-1.22-0.66-2.29-0.85-3.67
				C-1117.83-1450.62-1117.77-1450.34-1118.11-1448.24"/>
			<path id="Caminho_291" fill="#0E3B96" d="M-1116.58-1435.18c0.05-0.57,0.4-0.63,0.67-0.56c0.65,0.16,0.66-1.22,1.44-0.56
				c0.08,0.14,0.1,0.3,0.03,0.45C-1115.07-1435.37-1115.68-1434.75-1116.58-1435.18"/>
			<path id="Caminho_292" fill="#0E3B96" d="M-1133.57-1441.32c-0.38,0.06-0.74-0.18-0.83-0.55c-0.09-0.43,0.22-0.66,0.61-0.72
				c0.46-0.07,0.87,0.08,0.91,0.6C-1132.85-1441.55-1133.23-1441.41-1133.57-1441.32"/>
			<path id="Caminho_293" fill="#0E3B96" d="M-1127.99-1422.08c0.75,0.43,0.9,1.18,1.4,2.17
				C-1127.56-1420.14-1128.18-1421.1-1127.99-1422.08"/>
			<path id="Caminho_294" fill="#0E3B96" d="M-1111.52-1441.75c0.37-0.74,0.61-1.57,1.45-1.94c0.09-0.04,0.42,0.2,0.41,0.22
				c-0.41,0.76-0.95,1.44-1.61,2L-1111.52-1441.75"/>
			<path id="Caminho_295" fill="#0E3B96" d="M-1114.08-1447.66c0.37,0.94,0.25,2.01-0.32,2.84
				C-1114.78-1446.01-1114.19-1446.81-1114.08-1447.66"/>
			<path id="Caminho_296" fill="#0E3B96" d="M-1112.63-1431.29c-0.55-0.25-1.47,0.27-1.56-0.71c-0.01-0.14,0.16-0.42,0.26-0.42
				C-1113.19-1432.45-1112.9-1431.89-1112.63-1431.29"/>
			<path id="Caminho_297" fill="#0E3B96" d="M-1123.55-1427.52c0.02,0.27-0.12,0.45-0.38,0.42c-0.16-0.04-0.29-0.15-0.36-0.3
				c-0.1-0.23-0.03-0.47,0.26-0.5C-1123.77-1427.93-1123.62-1427.76-1123.55-1427.52"/>
			<path id="Caminho_298" fill="#0E3B96" d="M-1119.51-1435.53c-0.16-0.24-0.3-0.5-0.4-0.77c-0.06-0.17,0.03-0.35,0.2-0.4
				c0.06-0.02,0.12-0.02,0.18-0.01c0.14,0.06,0.23,0.19,0.25,0.34C-1119.32-1436.07-1119.4-1435.79-1119.51-1435.53"/>
			<path id="Caminho_299" fill="#0E3B96" d="M-1119.66-1434.56l-0.78,0.27c-0.11-0.31-0.64-0.66-0.31-0.89
				C-1120.19-1435.57-1120.01-1434.83-1119.66-1434.56"/>
			<path id="Caminho_300" fill="#0E3B96" d="M-1118.6-1426.97c-0.1,0.64-0.56,0.74-1.1,0.72l0.01,0.01
				c-0.12-0.97,0.44-0.9,1.08-0.74L-1118.6-1426.97z"/>
			<path id="Caminho_301" fill="#0E3B96" d="M-1118.61-1426.98c0.08-0.34,0.15-0.69,0.63-0.59c0.08,0.02,0.2,0.16,0.19,0.22
				C-1117.89-1426.88-1118.29-1427.02-1118.61-1426.98L-1118.61-1426.98"/>
			<path id="Caminho_302" fill="#0E3B96" d="M-1094.29-1446.67h-0.74l0.01,0.02c0.03-0.52,0.3-0.87,0.8-0.68
				c0.55,0.21-0.1,0.44-0.09,0.68L-1094.29-1446.67"/>
			<path id="Caminho_303" fill="#0E3B96" d="M-1110.64-1435.03c-0.3,0.18-0.6,0.37-0.9,0.55
				C-1111.54-1435.16-1111.33-1435.48-1110.64-1435.03"/>
			<path id="Caminho_304" fill="#0E3B96" d="M-1115.41-1437.23c0.1,0.33-0.09,0.42-0.24,0.41c-0.13-0.01-0.25-0.15-0.38-0.24
				c0.09-0.12,0.17-0.31,0.28-0.33C-1115.63-1437.42-1115.48-1437.27-1115.41-1437.23"/>
			<path id="Caminho_305" fill="#0E3B96" d="M-1095.03-1446.67c-0.08,0.19-0.08,0.49-0.41,0.34c-0.07-0.03-0.17-0.21-0.14-0.27
				c0.14-0.31,0.37-0.08,0.56-0.06L-1095.03-1446.67"/>
			<path id="Caminho_306" fill="#0E3B96" d="M-1116.8-1436.55l-0.12-0.1c0.05-0.03,0.09-0.07,0.14-0.07c0.04,0,0.08,0.06,0.12,0.09
				L-1116.8-1436.55"/>
			<path id="Caminho_307" fill="#0E3B96" d="M-1124.05-1429.16l-0.21-0.22l0.15-0.08
				C-1124.09-1429.36-1124.07-1429.26-1124.05-1429.16L-1124.05-1429.16z"/>
			<path id="Caminho_308" fill="#0E3B96" d="M-1097.08-1448.83l0.06-0.1l0.04,0.11L-1097.08-1448.83z"/>
			<path id="Caminho_309" fill="#0E3B96" d="M-1111.27-1441.47c-0.15,0.18-0.41,0.33-0.55,0.14c-0.19-0.25,0.17-0.29,0.3-0.42
				L-1111.27-1441.47"/>
			<path id="Caminho_310" fill="#0E3B96" d="M-1116.76-1426.72l-0.12-0.07l0.13-0.05L-1116.76-1426.72z"/>
			<path id="Caminho_311" fill="#0E3B96" d="M-1114.82-1444.25l-0.02-0.1l0.08,0.02L-1114.82-1444.25z"/>
			<path id="Caminho_312" fill="#0E3B96" d="M-1150.52-1448.48l-0.1,0.13c0.02-0.06,0.04-0.11,0.06-0.17L-1150.52-1448.48"/>
			<path id="Caminho_313" fill="#0E3B96" d="M-1116.11-1425.89c0.01,0.48-0.21,0.3-0.42,0.14L-1116.11-1425.89"/>
			<path id="Caminho_314" fill="#0E3B96" d="M-1100.11-1446.67c0.05-0.23,0.05-0.5,0.38-0.5c0.06,0.02,0.1,0.06,0.12,0.11
				C-1099.61-1446.71-1099.89-1446.72-1100.11-1446.67L-1100.11-1446.67"/>
			<path id="Caminho_315" fill="#0E3B96" d="M-1100.47-1448.48l-0.08,0.1l0.07-0.11L-1100.47-1448.48"/>
		</g>
	</g>
</g>
</svg>
