<?xml version="1.0" encoding="utf-8"?>
<!-- Generator: Adobe Illustrator 26.3.1, SVG Export Plug-In . SVG Version: 6.00 Build 0)  -->
<svg version="1.1" id="Camada_1" xmlns="http://www.w3.org/2000/svg" xmlns:xlink="http://www.w3.org/1999/xlink" x="0px" y="0px"
	 viewBox="0 0 190 140" enable-background="new 0 0 190 140" xml:space="preserve">
<g transform="matrix(1, 0, 0, 1, 0, 0)">
	<path id="Retângulo_2686-2" fill="#2E8CFF" d="M25,0h140c13.81,0,25,11.19,25,25v90c0,13.81-11.19,25-25,25H25
		c-13.81,0-25-11.19-25-25V25C0,11.19,11.19,0,25,0z"/>
</g>
<g id="Grupo_7419" transform="translate(1454 1671)">
	<g>
		<defs>
			<rect id="SVGID_1_" x="-1440" y="-1626" width="162" height="51"/>
		</defs>
		<clipPath id="SVGID_00000174597939002177228450000001494836977254188222_">
			<use xlink:href="#SVGID_1_"  overflow="visible"/>
		</clipPath>
		<g id="Grupo_7371-2" transform="translate(0 0)" clip-path="url(#SVGID_00000174597939002177228450000001494836977254188222_)">
			<path id="Caminho_222-2" fill="#0A2D54" d="M-1377.89-1587.4c-1.08,0.76-1.92,2.8-3.54,0.54c-0.31-0.44-1.05,0.03-1.58,0.19
				c-1.54,0.46-3.07,0.92-5.04,1.5c0.9-1.28,1.68-2.2,1.5-3.44c1.1-0.25,2.22-0.38,3.34-0.37c0.59,0.06,0.82-0.14,1.25-0.8
				c0.99-1.52,0.8-2.25-0.68-3.04c-0.45-0.24-0.4-0.83-0.31-1.35c0.17-1.05-0.77-1.16-1.17-0.79c-0.98,0.86-2.42,0.97-3.51,0.25
				c-1.81-0.88-0.61,1.33-1.65,1.33c-1.1,0-1.61-1.89-2.12-1.21c-1.2,1.58-2.55,0.76-3.9,0.93c-5.49,0.62-11.02,0.88-16.55,0.77
				c-0.79-0.15-1.61,0.02-2.27,0.47l2.08,0.75c-4,4.57-7.88,9.25-12.41,13.33c-1.26,1.26-2.75,2.24-4.41,2.9
				c-0.91,0.5-2,0.58-2.97,0.2c2.57-1.65,2.75-4.17,3.1-6.69c0.42-2.86,1.13-5.68,2.12-8.4c0.46-1.2,0.44-2.53-0.08-3.7
				c-1.23-3.1-3.1-5.9-5.49-8.23c-2.8-2.68-5.41-5.54-7.82-8.58c0.46-0.33,1.08-0.37,1.58-0.09c3.91,1.2,7.7,2.65,11.49,4.22
				c5.54,2.33,10.5,5.84,14.55,10.27c0.29,0.31,0.66,0.74,1.08,0.55c2.23-0.99,5.24-0.43,6.56-3.2c0.45-0.95,1.13-0.69,1.77-0.42
				c1.2,0.46,2.52,0.46,3.72,0.01c10.08-2.9,20.17-5.77,30.27-8.61c3.55-1,5.1-3.1,4.84-6.78c-0.36-3.23-1.03-6.41-2.01-9.51
				c-0.12-0.45-0.66-0.91-0.23-1.35c0.45-0.46,1.08-0.18,1.6,0.01c3.25,1.02,6.3,2.58,9.04,4.61c2.01,1.45,3.92,3.03,5.74,4.71
				c1.86,1.92,3.88,2.19,6.33,1.81c10.95-1.7,22.04-2.23,33.1-1.59c10.43,0.44,20.74,2.5,30.53,6.11c0.74,0.29,2.06,0.35,2.04,1.23
				c-0.02,0.97-1.22,1.43-2.09,1.9c-0.27,0.1-0.54,0.16-0.83,0.18c-1.13-0.64-2.55-0.45-3.47,0.47c-1.84,1.49-4.24,2.09-6.56,1.64
				c-2.88-0.61-5.88-0.02-8.3,1.65c-1.47,1.01-3.27,2.15-5.2,0.5c-0.6-0.51-0.83,0.08-1.01,0.57c-0.51,1.63-2.18,2.61-3.86,2.26
				c-1.54-0.04-3.04-0.45-4.39-1.18c-1-0.71-1.31-0.79-1.86,0.15c-0.5,0.84-0.79,0.95-1.45,0.02c-0.64-0.91-2.69-0.23-2.64,0.89
				c0.09,1.97-1,1.22-2.02,1.19c-1.03-0.08-2.01,0.43-2.54,1.32c-0.31,0.82,0.96,0.72,1.56,0.94c0.66,0.23,1.54,0.44,0.92,1.27
				c-0.46,0.61-1.49,1.34-2.1,1.21c-2.33-0.46-2.89,1.19-3.7,2.63c-4.25,5.77-10.11,10.16-16.84,12.62
				c-0.39,0.17-0.79,0.32-1.19,0.42c-0.93,0.17-2,0.94-2.75-0.04c-0.66-0.86,0.21-1.72,0.59-2.5c0.87-1.76,1.84-3.48,2.76-5.21
				c0.38-0.72,1.07-1.37,0.55-2.3c-0.52-0.83-2.14-0.95-1.94-1.98c0.17-0.86,1.61-0.5,2.41-0.88c0.53-0.25,1.67-0.07,1.32-0.99
				c-0.32-0.86-0.06-2.68-2.06-2.03c-1.45,0.35-2.95,0.4-4.42,0.15c-2.18-0.2-4.27-0.5-6.38,0.2c-0.67,0.22-1.37,0.35-2.07,0.38
				c-1.89-0.01-3.78,0.21-5.62,0.65c-2.03,0.63-4.37-0.99-6.14,0.96c-1.89-1.12-4-0.23-5.99-0.57c-0.84-0.14-1.82,0.5-2.74,0.79
				c0.78,1.21-0.29,1.22-0.97,1.44c-0.78,0.26-1.64,0.38-1.97,1.42C-1379.87-1588.52-1378.81-1588.07-1377.89-1587.4"/>
			<path id="Caminho_223-2" fill="#FFFFFF" d="M-1327.54-1591.25c0.81-1.44,1.38-3.09,3.7-2.63c0.61,0.12,1.64-0.6,2.1-1.21
				c0.63-0.83-0.26-1.04-0.92-1.28c-0.61-0.21-1.87-0.11-1.56-0.94c0.52-0.89,1.51-1.4,2.54-1.32c1.02,0.03,2.1,0.78,2.02-1.19
				c-0.05-1.11,2-1.79,2.64-0.88c0.66,0.93,0.95,0.82,1.45-0.02c0.55-0.94,0.87-0.86,1.86-0.15c1.35,0.73,2.86,1.14,4.39,1.18
				c1.68,0.36,3.35-0.62,3.86-2.26c0.18-0.48,0.41-1.08,1.01-0.57c1.93,1.65,3.73,0.52,5.2-0.5c2.42-1.67,5.42-2.27,8.3-1.65
				c2.32,0.45,4.72-0.15,6.56-1.64c0.92-0.92,2.34-1.12,3.47-0.47c-1.79,2.67-4.71,2.76-7.46,3.23c-0.63,0.06-1.27,0.07-1.91,0.04
				c-0.73,0.02-1.37,0.23-0.94,1.12c0.6,1.23-0.11,1.76-0.99,2.38c-2.63,1.8-5.6,3.05-8.73,3.65c-7.95,1.65-15.9,3.28-23.86,4.89
				C-1325.71-1591.33-1326.62-1591.26-1327.54-1591.25 M-1292.32-1603.54c-1.25-0.53-2.69-0.38-3.81,0.39
				C-1294.6-1603.07-1293.7-1602.86-1292.32-1603.54 M-1316.42-1598.6l-0.06-0.18c-0.04,0.1-0.08,0.2-0.11,0.31
				c-0.01,0.05,0.03,0.11,0.05,0.16L-1316.42-1598.6"/>
			<path id="Caminho_224-2" fill="#FFFFFF" d="M-1377.89-1587.4c-0.92-0.67-1.98-1.12-3.1-1.32c0.33-1.05,1.2-1.16,1.97-1.42
				c0.68-0.23,1.75-0.23,0.97-1.44c0.92-0.29,1.9-0.93,2.74-0.79c1.99,0.34,4.09-0.55,5.99,0.57c1.76-1.95,4.1-0.34,6.14-0.96
				c1.84-0.44,3.73-0.65,5.62-0.65c0.7-0.04,1.4-0.16,2.07-0.38c2.12-0.69,4.2-0.4,6.38-0.2c1.47,0.24,2.97,0.19,4.42-0.16
				c2-0.65,1.74,1.17,2.06,2.03c0.35,0.92-0.8,0.74-1.32,0.99c-0.81,0.38-2.24,0.02-2.41,0.88c-0.21,1.04,1.42,1.16,1.94,1.98
				c-6.28,0.83-12.61,1.11-18.92,1.64c-3.17,0.11-6.35-0.06-9.49-0.5C-1374.53-1587.29-1376.2-1587.39-1377.89-1587.4"/>
			<path id="Caminho_225-2" fill="#FFFFFF" d="M-1412.05-1591.69l-2.08-0.75c0.67-0.45,1.48-0.62,2.27-0.47
				c5.53,0.11,11.06-0.15,16.55-0.77c1.35-0.17,2.7,0.66,3.9-0.93c0.51-0.68,1.02,1.21,2.12,1.21c1.03,0-0.16-2.21,1.65-1.33
				c1.1,0.71,2.53,0.61,3.51-0.25c0.39-0.37,1.34-0.26,1.17,0.79c-0.09,0.52-0.14,1.11,0.31,1.35c1.48,0.79,1.67,1.52,0.68,3.04
				c-0.43,0.66-0.66,0.86-1.25,0.8c-1.12-0.01-2.25,0.11-3.34,0.37l-16.05-1.79c-0.89-0.65-1.98-0.48-2.98-0.71L-1412.05-1591.69"/>
			<path id="Caminho_226-2" fill="#77BFEC" d="M-1292.32-1603.54c-1.38,0.68-2.28,0.47-3.81,0.39
				C-1295.01-1603.92-1293.57-1604.07-1292.32-1603.54"/>
			<path id="Caminho_227-2" fill="#0B4B57" d="M-1316.42-1598.59l-0.11,0.29c-0.02-0.05-0.06-0.11-0.05-0.16
				c0.03-0.11,0.07-0.21,0.11-0.31L-1316.42-1598.59"/>
		</g>
	</g>
</g>
</svg>
