<?xml version="1.0" encoding="utf-8"?>
<!-- Generator: Adobe Illustrator 26.3.1, SVG Export Plug-In . SVG Version: 6.00 Build 0)  -->
<svg version="1.1" id="Camada_1" xmlns="http://www.w3.org/2000/svg" xmlns:xlink="http://www.w3.org/1999/xlink" x="0px" y="0px"
	 viewBox="0 0 104.54 87.61" enable-background="new 0 0 104.54 87.61" xml:space="preserve">
<g>
	<path fill="#FFFFFF" stroke="#0E3B96" stroke-width="0.75" stroke-miterlimit="10" d="M47.62,16.28
		C31.55,22.42,15.9,29.48,2.59,40.75c-1.06,0.9-2.63,1.53-2.59,3.33c0.03,0.06,0.06,0.13,0.1,0.19c2.65,5.18,6.71,9.3,10.36,13.73
		c8.5-1.13,28.99-5.34,35.08-2.73c7,3,5,12,0,13c-3.23,0.64-14.81,3.38-23.68,4.42c0.92,1.05,2.01,1.93,3.45,2.42
		c3.73,1.27,7.53,2.42,11.39,3.19c6.98,1.4,54.84,8.97,67.84,9.31V0C85.2,4.03,66.15,9.2,47.62,16.28z M49.54,46.27
		c-1.77,0-3.37-0.77-4.46-2c-0.96-1.06-1.54-2.46-1.54-4c0-3.31,2.69-6,6-6s6,2.69,6,6c0,1.54-0.58,2.94-1.54,4
		C52.91,45.5,51.31,46.27,49.54,46.27z"/>
	<path fill="#0E3B96" d="M104.54,0v44.27H54c0.96-1.06,1.54-2.46,1.54-4c0-3.31-2.69-6-6-6s-6,2.69-6,6c0,1.54,0.58,2.94,1.54,4H0.1
		c-0.04-0.06-0.07-0.13-0.1-0.19c-0.04-1.8,1.53-2.43,2.59-3.33C15.9,29.48,31.55,22.42,47.62,16.28C66.15,9.2,85.2,4.03,104.54,0z"
		/>
	<path fill="#0A2D54" d="M74.04,60.27L74.04,60.27c-1.38,0-2.5-1.12-2.5-2.5v-31c0-1.38,1.12-2.5,2.5-2.5l0,0
		c1.38,0,2.5,1.12,2.5,2.5v31C76.54,59.15,75.42,60.27,74.04,60.27z"/>
	<path fill="#0A2D54" d="M83.04,60.27L83.04,60.27c-1.38,0-2.5-1.12-2.5-2.5v-31c0-1.38,1.12-2.5,2.5-2.5l0,0
		c1.38,0,2.5,1.12,2.5,2.5v31C85.54,59.15,84.42,60.27,83.04,60.27z"/>
	<path fill="#0A2D54" d="M92.04,60.27L92.04,60.27c-1.38,0-2.5-1.12-2.5-2.5v-31c0-1.38,1.12-2.5,2.5-2.5l0,0
		c1.38,0,2.5,1.12,2.5,2.5v31C94.54,59.15,93.42,60.27,92.04,60.27z"/>
</g>
</svg>
