<?xml version="1.0" encoding="utf-8"?>
<!-- Generator: Adobe Illustrator 26.2.1, SVG Export Plug-In . SVG Version: 6.00 Build 0)  -->
<svg version="1.1" id="Camada_1" xmlns="http://www.w3.org/2000/svg" xmlns:xlink="http://www.w3.org/1999/xlink" x="0px" y="0px"
	 viewBox="0 0 344.78 167" enable-background="new 0 0 344.78 167" xml:space="preserve">
<path fill="#E3E9F9" d="M102.58,130.51c-13.51-0.2-27-1.17-40.4-2.91c-1.35-0.12-2.71-0.16-4.07-0.14
	c4.27-0.95,8.53-1.93,12.81-2.85c31.7-6.78,62.32-17.84,91.04-32.88c0.94-0.49,2.19-0.72,2.27-2.15l3.74-0.22
	c0.24,0.04,0.49,0.07,0.74,0.09c47.95,0.01,95.89,0.02,143.84,0.04c1.11,0.16,2.23-0.14,3.11-0.83c0.61,5.25,3.17,9.85,4.89,14.72
	c3.67,10.37,7.61,20.65,11.61,30.9c1.01,2.6,0.11,3.06-2.16,2.94c-14.09-0.74-25.17-7.03-33.46-18.37c-2.4-3.15-4.62-6.43-6.65-9.83
	c-4.29-7.51-9.33-6.77-14.73-4.96c-3.61,1.21-7.02,3.04-10.59,4.37c-2.52,0.94-3.17,2.54-3.08,5.11c0.19,5.21-0.03,10.44,0.09,15.65
	c0.06,2.43-0.92,3.06-3.13,2.67c-6.86-1.22-13.12-3.7-17.72-9.17c-2.19-2.6-4.39-2.86-7.49-1.84c-6.85,2.34-13.9,4.09-21.05,5.23
	c-2.86,0.43-4.45,1.43-4.22,4.94c0.38,5.94,0.06,11.92,0.13,17.89c0.03,2.23-0.08,3.36-3.04,2.72
	c-10.81-2.32-18.26-8.99-23.81-18.06c-1.56-2.55-3.26-3.54-5.91-3.04c-7.98,1.5-16.03,0.42-24.04,0.69
	c-4.08,0.14-8.17,0.04-12.25,0.05C126.86,131.78,114.74,130.28,102.58,130.51z"/>
<path fill="#79ADED" d="M167.95,89.37l-3.74,0.22l-45.23-0.02c-0.01-3.95,0.04-7.9-0.06-11.84c-0.09-3.78-2.44-6.13-5.93-6.13
	c-3.49,0-5.83,2.36-5.92,6.14c-0.1,3.95-0.05,7.9-0.06,11.84H95.22c-0.01-3.95,0.04-7.9-0.06-11.84c-0.09-3.78-2.44-6.13-5.93-6.13
	s-5.83,2.36-5.92,6.14c-0.1,3.95-0.05,7.9-0.06,11.84h-11.8c-0.01-3.95,0.04-7.9-0.06-11.84c-0.09-3.78-2.44-6.13-5.93-6.13
	c-3.49,0-5.83,2.36-5.92,6.14c-0.1,3.95-0.05,7.9-0.06,11.84H47.71c-0.75-4.22-2.59-6.09-6.01-6.09c-3.42,0-5.26,1.87-6,6.09
	L0.79,89.68c-0.03-1.79,1.52-2.42,2.57-3.32C16.57,75.13,32.1,68.1,48.05,61.98c23.59-9.05,48.05-14.97,72.87-19.41
	c2.86-0.51,4.53-1.55,5.56-4.41c1.63-4.55,3.56-8.98,5.78-13.27c7.67-14.8,20.03-22.79,36.4-24.78c2.63-0.32,3.92-0.1,3.4,3.38
	c-1.64,11.04-2.97,22.13-4.14,33.22c-0.84,7.91,2.16,12.07,9.71,14.4c10.13,3.13,20.27,6.25,30.4,9.36
	c-0.02,0.75-0.39,1.44-0.98,1.89c-9.69,7.51-19.78,14.48-30.23,20.88C173.78,85.11,170.13,86.19,167.95,89.37z"/>
<path fill="#0E3B96" d="M167.95,89.37c2.17-3.18,5.83-4.26,8.88-6.14c10.45-6.4,20.54-13.37,30.23-20.88
	c0.6-0.45,0.96-1.14,0.98-1.89c7.6,1.54,14.91,4.12,22.28,6.48c2.79,0.89,4.68,0.59,6.7-1.7c4.79-5.45,10.15-10.14,17.51-11.91
	c7.03-1.69,7-1.8,7,5.17c0,4.97,0.07,9.94-0.04,14.91c-0.04,2,0.33,3.11,2.6,3.6c3.59,0.79,7.06,2.12,10.6,3.19
	c7.63,2.31,11.23,0.63,14.26-6.75c5.58-13.9,15.43-25.67,28.14-33.61c8.4-5.3,17.84-8.75,27.69-10.12
	c-9.88,19.96-19.51,39.45-29.15,58.93c-0.88,0.69-2.01,0.99-3.11,0.83c-47.95-0.02-95.89-0.03-143.84-0.04
	C168.44,89.45,168.2,89.42,167.95,89.37z"/>
<path fill="#E3E9F9" d="M102.58,130.51c12.16-0.24,24.28,1.26,36.45,0.76c4.22,9.74,8.43,19.47,12.64,29.21
	c0.87,2.02,1.7,4.05,2.73,6.52c-6.51-0.02-12.96-1.36-18.94-3.93c-11.1-4.53-18.39-13.3-25.27-22.57
	C107.69,137.14,105.12,133.84,102.58,130.51z"/>
<path fill="#0E3B96" d="M95.22,89.57c-0.46,3.53-2.35,5.8-5.98,5.8c-3.63,0-5.53-2.26-5.98-5.8c0.01-3.95-0.04-7.9,0.06-11.84
	c0.09-3.78,2.44-6.14,5.92-6.14c3.48,0,5.83,2.36,5.92,6.14C95.26,81.68,95.2,85.63,95.22,89.57z"/>
<path fill="#0E3B96" d="M71.98,89.14c-0.5,3.56-2.55,5.85-6.5,5.85c-3.94,0-6.01-2.28-6.5-5.85c0.01-3.99-0.04-7.97,0.07-11.95
	c0.1-3.82,2.65-6.2,6.43-6.2c3.78,0,6.33,2.38,6.43,6.2C72.02,81.18,71.95,85.17,71.98,89.14z"/>
<path fill="#0E3B96" d="M118.98,89.57c-0.46,3.53-2.35,5.8-5.98,5.8c-3.63,0-5.53-2.26-5.98-5.8c0.01-3.95-0.04-7.9,0.06-11.84
	c0.09-3.78,2.44-6.14,5.92-6.14c3.48,0,5.83,2.35,5.93,6.13C119.02,81.67,118.96,85.63,118.98,89.57z"/>
<path fill="#0E3B96" d="M47.72,89.6c-0.46,3.55-2.37,5.81-6.01,5.81s-5.56-2.25-6.01-5.8c0.75-4.22,2.6-6.09,6.01-6.09
	S46.97,85.39,47.72,89.6z"/>
<path fill="#FFFFFF" stroke="#E3E9F9" d="M118.98,89.58c-0.47,3.53-2.35,5.8-5.98,5.8c-3.63,0-5.53-2.26-5.98-5.8h-11.8
	c-0.47,3.53-2.35,5.8-5.98,5.8c-3.63,0-5.53-2.26-5.98-5.8h-11.8c-0.46,3.53-2.35,5.8-5.98,5.8c-3.63,0-5.52-2.26-5.97-5.8
	c-3.93,0.01-7.85,0.01-11.78,0.02c-0.46,3.56-2.36,5.81-6,5.81s-5.56-2.24-6-5.8c-11.65,0.02-23.29,0.05-34.92,0.08
	c2.08,4.18,5.09,7.65,8.1,11.15c1.02,1.19,2.03,2.38,3.02,3.61c1.06-1.1,2.36-1.94,3.8-2.45c0.02-0.01,0.03-0.01,0.05-0.02
	c1.8-0.58,3.69-0.79,5.57-0.63c4.42,0.24,8.85,0.04,13.29,0.06c4.66,0.02,7.17,2.19,7.12,6.09c0.12,2.21-1.15,4.26-3.18,5.14
	c-0.01,0.01-0.03,0.01-0.05,0.02c-1.19,0.48-2.46,0.72-3.74,0.71c-5.16,0.06-10.32,0.11-15.49,0.16l0.18,0.27
	c1.78,2.64,3.22,5.7,6.46,6.82c3.69,1.31,7.47,2.37,11.3,3.18c6.93,1.4,13.92,2.47,20.89,3.69c4.27-0.96,8.52-1.94,12.8-2.85
	c31.69-6.78,62.32-17.85,91.03-32.89c0.94-0.49,2.19-0.72,2.27-2.14C149.13,89.59,134.05,89.58,118.98,89.58z"/>
</svg>
