<?xml version="1.0" encoding="utf-8"?>
<!-- Generator: Adobe Illustrator 26.2.1, SVG Export Plug-In . SVG Version: 6.00 Build 0)  -->
<svg version="1.1" id="Camada_1" xmlns="http://www.w3.org/2000/svg" xmlns:xlink="http://www.w3.org/1999/xlink" x="0px" y="0px"
	 viewBox="0 0 34.4 36.96" enable-background="new 0 0 34.4 36.96" xml:space="preserve">
<g id="Grupo_7361" transform="translate(15 12.6)">
	<g id="Grupo_7362" transform="translate(0 0)">
		<path id="Caminho_201-3" fill="none" stroke="#FFFFFF" stroke-miterlimit="10" d="M-14.23,22.09l30.81-33.76
			c0.76-0.83,2.32-0.37,2.32,0.67v33.76c-0.06,0.66-0.64,1.15-1.3,1.1h-30.8C-14.28,23.86-14.89,22.81-14.23,22.09z"/>
		<path id="Caminho_202-3" fill="#FFFFFF" d="M15.99,4.12V6.5c-0.12,1.34-1.29,2.33-2.62,2.23H5.09v3.28
			c0.05,1.1-0.79,2.03-1.89,2.08c-0.34,0.02-0.67-0.05-0.98-0.2l-5.42-2.86l-0.03-0.01l8.31-9.15V1.9h8.27
			C14.7,1.8,15.87,2.79,15.99,4.12"/>
		<path id="Caminho_203-3" fill="#FFFFFF" d="M4.99-2.44v3.59l-9.05,9.91L-11.74,7c-1.19-0.83-1.49-2.46-0.67-3.66
			c0.18-0.26,0.41-0.49,0.67-0.67L1.58-4.39c1.2-0.56,2.63-0.05,3.19,1.15C4.89-2.99,4.97-2.72,4.99-2.44"/>
	</g>
</g>
</svg>
